<svg width="257" height="178" viewBox="0 0 257 178" fill="none" xmlns="http://www.w3.org/2000/svg">
<g clip-path="url(#clip0)">
<path opacity="0.1" d="M149.35 28.161C132.88 27.5931 117.193 22.3102 102.213 16.5319C87.2323 10.7535 72.3953 4.35071 56.317 1.28958C45.9785 -0.681028 34.1527 -0.959312 25.8208 4.54754C17.8033 9.84625 15.2136 18.9934 13.8196 27.4822C12.7719 33.8692 12.1569 40.5887 15.0268 46.5684C17.0198 50.7178 20.5594 54.2065 22.9988 58.1817C31.5151 72.0167 25.5042 89.0735 16.2659 102.583C11.9383 108.918 6.91364 114.963 3.57453 121.707C0.235418 128.452 -1.30431 136.18 1.63165 143.072C4.52889 149.891 11.4258 155.013 18.9126 158.617C34.0912 165.923 51.9916 168.018 69.4457 169.203C108.085 171.828 146.931 170.692 185.672 169.554C200.008 169.131 214.41 168.706 228.514 166.502C236.347 165.28 244.432 163.335 250.12 158.654C257.338 152.706 259.128 142.633 254.29 135.174C246.177 122.662 223.744 119.563 218.075 106.128C214.952 98.7388 218.159 90.5056 222.696 83.6526C232.427 68.9465 248.737 56.0505 249.596 39.2426C250.188 27.7039 242.346 16.1382 230.222 10.6766C217.512 4.95253 199.892 5.67199 190.515 15.1495C180.859 24.9075 163.893 28.661 149.35 28.161Z" fill="#EA4C4C"/>
<path d="M205.594 154.28C204.67 153.983 203.694 153.88 202.727 153.977C201.549 154.104 201.716 155.884 202.898 155.801C203.489 155.755 204.074 155.648 204.642 155.482L205.594 154.28Z" fill="#EA4C4C"/>
<path d="M205.952 154.296C206.378 155.165 206.617 156.112 206.654 157.077C206.692 158.253 204.893 158.337 204.811 157.163C204.775 156.575 204.801 155.985 204.888 155.402L205.952 154.296Z" fill="#EA4C4C"/>
<path d="M208.631 150.486C208.631 150.486 208.054 148.69 204.531 149.387C202.936 149.701 202.98 151.973 204.576 152.212H204.645C206.97 152.534 207.779 151.617 208.631 150.486Z" fill="#EA4C4C"/>
<path d="M208.997 150.38C208.997 150.38 210.89 150.527 211.009 154.09C211.063 155.694 208.829 156.181 208.23 154.692C208.23 154.669 208.214 154.649 208.205 154.626C207.369 152.452 208.082 151.461 208.997 150.38Z" fill="#EA4C4C"/>
<path d="M211.526 145.787C211.393 145.135 211.087 144.53 210.64 144.034C210.193 143.539 209.622 143.171 208.984 142.968C206.599 142.221 205.339 145.764 207.669 146.665C208.634 147.015 209.661 147.162 210.685 147.099L211.526 145.787Z" fill="#EA4C4C"/>
<path d="M214.434 139.871C214.434 139.871 213.471 137.608 210.972 137.156C208.323 136.674 207.521 140.626 210.139 141.257C211.313 141.511 212.527 141.521 213.705 141.287L214.434 139.871Z" fill="#EA4C4C"/>
<path d="M216.19 134.045C215.782 133.408 215.25 132.859 214.623 132.432C213.997 132.004 213.291 131.706 212.546 131.556C210.268 131.131 209.501 134.518 211.737 135.097C213.142 135.438 214.611 135.418 216.006 135.038L216.19 134.045Z" fill="#EA4C4C"/>
<path d="M217.846 128.366C217.12 127.176 215.989 126.283 214.658 125.848C212.38 125.153 211.255 128.583 213.519 129.33C214.861 129.772 216.312 129.766 217.65 129.314L217.846 128.366Z" fill="#EA4C4C"/>
<path d="M218.543 123.192C218.543 123.192 217.632 121.069 215.776 119.947C213.708 118.696 211.737 121.757 213.726 123.135C214.951 123.988 216.521 124.576 218.354 124.183L218.543 123.192Z" fill="#EA4C4C"/>
<path d="M218.887 117.054C218.887 117.054 217.883 114.911 215.956 113.886C213.801 112.755 211.927 115.882 213.956 117.23C215.284 118.11 216.942 118.68 218.703 117.992L218.887 117.054Z" fill="#EA4C4C"/>
<path d="M218.673 111.456C217.921 110.298 217 109.257 215.94 108.368C214.432 107.144 212.523 109.348 213.951 110.655C215.27 111.857 216.912 112.866 218.609 112.784L218.673 111.456Z" fill="#EA4C4C"/>
<path d="M218.101 106.085C217.24 104.642 216.203 103.311 215.013 102.121C213.833 100.99 212.088 102.714 213.191 103.906C214.464 105.264 216.181 106.671 218.245 107.286L218.101 106.085Z" fill="#EA4C4C"/>
<path d="M216.997 99.7682C216.287 98.6718 215.46 97.6545 214.53 96.7342C213.341 95.5781 211.548 97.318 212.69 98.5193C213.901 99.7976 215.468 100.994 217.307 101.402L216.997 99.7682Z" fill="#EA4C4C"/>
<path d="M216.031 93.8745C215.301 92.8928 214.509 91.9581 213.66 91.0758C212.708 90.1007 211.186 91.4717 212.084 92.4989C213.138 93.7071 214.491 94.7772 216.047 94.9492L216.031 93.8745Z" fill="#EA4C4C"/>
<path d="M215.029 88.4083C214.363 87.1137 213.602 85.8697 212.751 84.6866C212.038 83.7183 210.553 84.7545 211.225 85.75C212.104 87.0554 213.325 88.3473 214.929 88.9694L215.029 88.4083Z" fill="#EA4C4C"/>
<path d="M214.202 81.1435C214.202 81.1435 213.639 80.1955 212.835 79.0937C212.093 78.0779 210.526 79.1276 211.214 80.1797C211.988 81.3584 212.958 82.363 214.088 82.5621L214.202 81.1435Z" fill="#EA4C4C"/>
<path d="M213.808 76.329L213.095 72.7882C212.906 71.8516 211.501 72.0756 211.614 73.0145C211.87 74.9059 212.526 76.8087 213.954 78.0575L213.808 76.329Z" fill="#EA4C4C"/>
<path d="M214.232 66.2655C214.165 66.109 214.043 65.9821 213.889 65.9087C213.735 65.8354 213.559 65.8208 213.395 65.8676C213.23 65.9144 213.089 66.0194 212.997 66.1628C212.905 66.3061 212.87 66.4779 212.897 66.6456C213.055 67.6291 213.296 68.5978 213.617 69.5416L214.232 66.2655Z" fill="#EA4C4C"/>
<path d="M211.685 145.717C212.321 145.508 213.002 145.472 213.657 145.612C214.312 145.752 214.918 146.063 215.411 146.513C217.234 148.203 214.769 151.038 212.826 149.479C212.043 148.82 211.405 148.007 210.952 147.092L211.685 145.717Z" fill="#EA4C4C"/>
<path d="M214.596 139.656C214.596 139.656 216.992 139.081 218.846 140.805C220.812 142.633 218.095 145.626 216.024 143.914C215.119 143.127 214.388 142.164 213.876 141.083L214.596 139.656Z" fill="#EA4C4C"/>
<path d="M216.348 134.443C216.967 134.002 217.67 133.691 218.413 133.527C219.157 133.363 219.926 133.35 220.675 133.488C222.953 133.941 222.386 137.364 220.092 137.072C218.661 136.866 217.307 136.301 216.156 135.432L216.348 134.443Z" fill="#EA4C4C"/>
<path d="M217.96 128.398C219.08 127.563 220.463 127.153 221.86 127.241C224.242 127.447 223.987 131.042 221.602 130.893C220.19 130.806 218.846 130.261 217.776 129.343L217.96 128.398Z" fill="#EA4C4C"/>
<path d="M218.514 123.339C218.514 123.339 219.778 121.402 221.796 120.61C224.035 119.73 225.472 123.063 223.297 124.088C221.93 124.728 220.283 125.051 218.534 124.348L218.514 123.339Z" fill="#EA4C4C"/>
<path d="M218.593 116.961C218.593 116.961 219.871 114.97 221.914 114.21C224.192 113.361 225.647 116.71 223.459 117.784C222.026 118.486 220.306 118.834 218.653 117.925L218.593 116.961Z" fill="#EA4C4C"/>
<path d="M218.165 111.397C218.65 110.106 219.325 108.894 220.17 107.8C221.377 106.282 223.725 108.026 222.604 109.61C221.575 111.065 220.199 112.397 218.505 112.68L218.165 111.397Z" fill="#EA4C4C"/>
<path d="M217.99 106.076C218.409 104.448 219.03 102.878 219.839 101.402C220.657 99.9945 222.814 101.16 222.08 102.612C221.242 104.275 219.985 106.096 218.177 107.262L217.99 106.076Z" fill="#EA4C4C"/>
<path d="M216.669 99.4741C217.161 98.2191 217.792 97.0224 218.55 95.9062C219.488 94.5487 221.568 95.879 220.709 97.2817C219.775 98.8112 218.459 100.35 216.694 101.128L216.669 99.4741Z" fill="#EA4C4C"/>
<path d="M215.616 93.8428C215.87 92.6492 216.2 91.4726 216.603 90.3201C217.058 89.0373 219.019 89.6572 218.632 90.9627C218.177 92.4966 217.395 94.0283 216.054 94.827L215.616 93.8428Z" fill="#EA4C4C"/>
<path d="M214.885 88.3021C215.237 86.8895 215.694 85.5048 216.252 84.1595C216.726 83.0554 218.411 83.7273 217.983 84.8495C217.427 86.3201 216.534 87.8541 215.118 88.8224L214.885 88.3021Z" fill="#EA4C4C"/>
<path d="M213.79 81.6413C213.79 81.6413 214.004 80.5621 214.393 79.2567C214.753 78.053 216.584 78.5259 216.286 79.7454C215.954 81.1028 215.375 82.3811 214.373 82.9422L213.79 81.6413Z" fill="#EA4C4C"/>
<path d="M214.045 76.0892L215.284 72.6955C215.612 71.7905 216.978 72.2294 216.712 73.148C216.177 74.9806 215.247 76.7679 213.642 77.786L214.045 76.0892Z" fill="#EA4C4C"/>
<path d="M215.589 66.6207C215.589 66.6207 215.783 66.4669 216.079 66.2248C216.682 65.727 217.471 66.5958 216.901 67.1298C215.91 68.0248 214.77 68.7428 213.532 69.252L215.589 66.6207Z" fill="#EA4C4C"/>
<path d="M215.507 64.6547C216.248 63.1528 217.073 61.6934 217.978 60.2836C218.03 60.1864 218.045 60.0737 218.019 59.9667C217.993 59.8596 217.929 59.7655 217.839 59.702C217.748 59.6385 217.638 59.6099 217.528 59.6216C217.417 59.6333 217.315 59.6844 217.24 59.7655C216.512 60.7565 215.796 62.2067 215.254 64.338L215.507 64.6547Z" fill="#EA4C4C"/>
<path d="M214.095 82.6187L214.359 82.5915C213.22 72.0462 213.701 65.5438 215.692 64.2836L215.548 64.0574C213.439 65.399 212.938 71.8154 214.095 82.6187Z" fill="#444053"/>
<path d="M218.013 107.551L218.407 107.492C218.259 106.517 218.088 105.526 217.896 104.551C216.238 95.9921 214.949 88.0803 214.304 82.0712L214.015 81.8449C214.662 87.8653 215.837 96.051 217.507 104.621C217.694 105.59 217.865 106.578 218.013 107.551Z" fill="#444053"/>
<path d="M199.563 160.85C199.622 160.803 205.69 156.192 211.018 147.348C214.14 142.172 216.416 136.537 217.76 130.653C219.443 123.298 219.491 114.732 218.277 106.709L217.921 106.992C220.655 124.997 215.441 138.977 210.576 147.058C205.301 155.821 199.304 160.384 199.242 160.43L199.563 160.85Z" fill="#444053"/>
<path d="M44.192 160.81C52.5636 160.81 59.3501 159.513 59.3501 157.914C59.3501 156.314 52.5636 155.018 44.192 155.018C35.8204 155.018 29.0339 156.314 29.0339 157.914C29.0339 159.513 35.8204 160.81 44.192 160.81Z" fill="#EA4C4C"/>
<path d="M43.9369 158.977C44.9118 158.977 45.7021 157.95 45.7021 156.683C45.7021 155.416 44.9118 154.389 43.9369 154.389C42.962 154.389 42.1717 155.416 42.1717 156.683C42.1717 157.95 42.962 158.977 43.9369 158.977Z" fill="#0E2431"/>
<path d="M43.9369 156.172C44.9118 156.172 45.7021 155.145 45.7021 153.878C45.7021 152.61 44.9118 151.583 43.9369 151.583C42.962 151.583 42.1717 152.61 42.1717 153.878C42.1717 155.145 42.962 156.172 43.9369 156.172Z" fill="#0E2431"/>
<path d="M43.9369 153.368C44.9118 153.368 45.7021 152.341 45.7021 151.074C45.7021 149.807 44.9118 148.78 43.9369 148.78C42.962 148.78 42.1717 149.807 42.1717 151.074C42.1717 152.341 42.962 153.368 43.9369 153.368Z" fill="#0E2431"/>
<path d="M43.9369 150.563C44.9118 150.563 45.7021 149.536 45.7021 148.269C45.7021 147.002 44.9118 145.975 43.9369 145.975C42.962 145.975 42.1717 147.002 42.1717 148.269C42.1717 149.536 42.962 150.563 43.9369 150.563Z" fill="#0E2431"/>
<path d="M43.9369 147.758C44.9118 147.758 45.7021 146.73 45.7021 145.463C45.7021 144.196 44.9118 143.169 43.9369 143.169C42.962 143.169 42.1717 144.196 42.1717 145.463C42.1717 146.73 42.962 147.758 43.9369 147.758Z" fill="#0E2431"/>
<path d="M43.9369 144.954C44.9118 144.954 45.7021 143.927 45.7021 142.66C45.7021 141.393 44.9118 140.366 43.9369 140.366C42.962 140.366 42.1717 141.393 42.1717 142.66C42.1717 143.927 42.962 144.954 43.9369 144.954Z" fill="#0E2431"/>
<path d="M43.9369 142.149C44.9118 142.149 45.7021 141.122 45.7021 139.855C45.7021 138.588 44.9118 137.561 43.9369 137.561C42.962 137.561 42.1717 138.588 42.1717 139.855C42.1717 141.122 42.962 142.149 43.9369 142.149Z" fill="#0E2431"/>
<path d="M50.5422 120.66C50.7841 120.355 51.0041 120.034 51.2005 119.698L46.5631 118.943L51.574 118.979C52.0555 117.94 52.3181 116.813 52.3459 115.67C52.3737 114.526 52.1661 113.388 51.7358 112.327L45.0074 115.793L51.2119 111.268C50.6318 110.268 49.8503 109.397 48.9162 108.711C47.9822 108.024 46.9157 107.536 45.7832 107.277C44.6507 107.018 43.4766 106.993 42.3343 107.205C41.1919 107.417 40.1058 107.86 39.1437 108.508C38.1816 109.155 37.3642 109.993 36.7425 110.968C36.1208 111.943 35.7082 113.036 35.5305 114.176C35.3528 115.317 35.4137 116.482 35.7095 117.598C36.0052 118.715 36.5295 119.758 37.2496 120.664C36.8744 121.139 36.5515 121.653 36.2861 122.196L42.3061 125.303L35.892 123.162C35.4419 124.486 35.3311 125.9 35.5697 127.277C35.8083 128.653 36.3888 129.949 37.2587 131.047C36.2773 132.286 35.6666 133.774 35.4966 135.341C35.3265 136.908 35.6039 138.491 36.297 139.909C36.9902 141.327 38.071 142.523 39.416 143.359C40.761 144.196 42.3159 144.639 43.9027 144.639C45.4896 144.639 47.0444 144.196 48.3894 143.359C49.7344 142.523 50.8153 141.327 51.5084 139.909C52.2015 138.491 52.4789 136.908 52.3089 135.341C52.1388 133.774 51.5282 132.286 50.5468 131.047C51.7196 129.567 52.3574 127.739 52.3574 125.856C52.3574 123.973 51.7196 122.144 50.5468 120.664L50.5422 120.66Z" fill="#EA4C4C"/>
<path opacity="0.1" d="M35.4456 125.852C35.4437 127.735 36.0808 129.564 37.2541 131.042C36.2727 132.281 35.662 133.769 35.492 135.336C35.3219 136.903 35.5993 138.486 36.2924 139.904C36.9856 141.322 38.0664 142.518 39.4114 143.354C40.7564 144.191 42.3113 144.634 43.8981 144.634C45.485 144.634 47.0399 144.191 48.3849 143.354C49.7299 142.518 50.8107 141.322 51.5038 139.904C52.1969 138.486 52.4743 136.903 52.3043 135.336C52.1342 133.769 51.5236 132.281 50.5422 131.042C51.6765 129.615 35.4456 124.909 35.4456 125.852Z" fill="black"/>
<path d="M52.8359 59.1048V159.04C52.8359 159.499 52.9267 159.952 53.1032 160.376C53.2797 160.799 53.5384 161.183 53.8646 161.507C54.1907 161.831 54.5779 162.088 55.004 162.264C55.4301 162.439 55.8869 162.529 56.3481 162.529H200.725C201.656 162.529 202.55 162.162 203.208 161.507C203.867 160.853 204.237 159.966 204.237 159.04V59.1048H52.8359Z" fill="white"/>
<path opacity="0.1" d="M99.0391 68.0506H66.7868C65.6987 68.0506 64.8166 68.9268 64.8166 70.0076V87.1956C64.8166 88.2765 65.6987 89.1527 66.7868 89.1527H99.0391C100.127 89.1527 101.009 88.2765 101.009 87.1956V70.0076C101.009 68.9268 100.127 68.0506 99.0391 68.0506Z" fill="black"/>
<path opacity="0.1" d="M144.664 68.0506H112.411C111.323 68.0506 110.441 68.9268 110.441 70.0076V87.1956C110.441 88.2765 111.323 89.1527 112.411 89.1527H144.664C145.752 89.1527 146.634 88.2765 146.634 87.1956V70.0076C146.634 68.9268 145.752 68.0506 144.664 68.0506Z" fill="black"/>
<path d="M98.5289 68.347H67.2947C66.2066 68.347 65.3245 69.2232 65.3245 70.3041V86.8971C65.3245 87.9779 66.2066 88.8541 67.2947 88.8541H98.5289C99.617 88.8541 100.499 87.9779 100.499 86.8971V70.3041C100.499 69.2232 99.617 68.347 98.5289 68.347Z" fill="#EA4C4C"/>
<path opacity="0.1" d="M158.544 88.8541H189.778C190.866 88.8541 191.748 87.9779 191.748 86.8971V70.3041C191.748 69.2233 190.866 68.3471 189.778 68.3471H158.544C157.456 68.3471 156.574 69.2233 156.574 70.3041V86.8971C156.574 87.9779 157.456 88.8541 158.544 88.8541Z" fill="#444053"/>
<path d="M112.919 88.8541H144.154C145.242 88.8541 146.124 87.9779 146.124 86.8971V70.3041C146.124 69.2233 145.242 68.3471 144.154 68.3471H112.919C111.831 68.3471 110.949 69.2233 110.949 70.3041V86.8971C110.949 87.9779 111.831 88.8541 112.919 88.8541Z" fill="#EA4C4C"/>
<path opacity="0.1" d="M98.5289 97.9695H67.2947C66.2066 97.9695 65.3245 98.8457 65.3245 99.9266V116.52C65.3245 117.6 66.2066 118.477 67.2947 118.477H98.5289C99.617 118.477 100.499 117.6 100.499 116.52V99.9266C100.499 98.8457 99.617 97.9695 98.5289 97.9695Z" fill="#444053"/>
<path opacity="0.1" d="M158.544 118.477H189.778C190.866 118.477 191.748 117.6 191.748 116.52V99.9266C191.748 98.8458 190.866 97.9696 189.778 97.9696H158.544C157.456 97.9696 156.574 98.8458 156.574 99.9266V116.52C156.574 117.6 157.456 118.477 158.544 118.477Z" fill="#444053"/>
<path opacity="0.1" d="M112.919 118.477H144.154C145.242 118.477 146.124 117.6 146.124 116.52V99.9266C146.124 98.8458 145.242 97.9696 144.154 97.9696H112.919C111.831 97.9696 110.949 98.8458 110.949 99.9266V116.52C110.949 117.6 111.831 118.477 112.919 118.477Z" fill="#444053"/>
<path opacity="0.1" d="M98.5289 127.592H67.2947C66.2066 127.592 65.3245 128.468 65.3245 129.549V146.142C65.3245 147.223 66.2066 148.099 67.2947 148.099H98.5289C99.617 148.099 100.499 147.223 100.499 146.142V129.549C100.499 128.468 99.617 127.592 98.5289 127.592Z" fill="#444053"/>
<path opacity="0.1" d="M158.544 148.101H189.778C190.866 148.101 191.748 147.225 191.748 146.144V129.551C191.748 128.471 190.866 127.594 189.778 127.594H158.544C157.456 127.594 156.574 128.471 156.574 129.551V146.144C156.574 147.225 157.456 148.101 158.544 148.101Z" fill="#444053"/>
<path opacity="0.1" d="M112.919 148.101H144.154C145.242 148.101 146.124 147.225 146.124 146.144V129.551C146.124 128.471 145.242 127.594 144.154 127.594H112.919C111.831 127.594 110.949 128.471 110.949 129.551V146.144C110.949 147.225 111.831 148.101 112.919 148.101Z" fill="#444053"/>
<path d="M52.8359 41.4552V59.6116H204.237V41.4552C204.237 40.9969 204.147 40.543 203.97 40.1195C203.794 39.6959 203.535 39.3111 203.209 38.9869C202.883 38.6627 202.496 38.4055 202.069 38.23C201.643 38.0545 201.186 37.9642 200.725 37.9642H56.3481C55.8867 37.9642 55.4298 38.0545 55.0035 38.23C54.5772 38.4055 54.1899 38.6627 53.8638 38.9869C53.5376 39.3111 53.2789 39.6959 53.1026 40.1195C52.9262 40.543 52.8356 40.9969 52.8359 41.4552V41.4552ZM90.3041 46.8263C89.7495 46.8263 89.2074 46.663 88.7464 46.357C88.2853 46.0509 87.9259 45.616 87.7137 45.107C87.5015 44.5981 87.4459 44.0381 87.5541 43.4979C87.6623 42.9576 87.9293 42.4614 88.3215 42.0719C88.7136 41.6824 89.2132 41.4171 89.7571 41.3096C90.301 41.2022 90.8647 41.2573 91.3771 41.4681C91.8894 41.6789 92.3273 42.0359 92.6354 42.4939C92.9435 42.9519 93.1079 43.4904 93.1079 44.0412C93.1079 44.7799 92.8125 45.4883 92.2867 46.0106C91.7609 46.5329 91.0477 46.8263 90.3041 46.8263V46.8263ZM166.769 46.8263C166.214 46.8263 165.672 46.663 165.211 46.357C164.75 46.0509 164.391 45.616 164.178 45.107C163.966 44.5981 163.911 44.0381 164.019 43.4979C164.127 42.9576 164.394 42.4614 164.786 42.0719C165.178 41.6824 165.678 41.4171 166.222 41.3096C166.766 41.2022 167.33 41.2573 167.842 41.4681C168.354 41.6789 168.792 42.0359 169.1 42.4939C169.408 42.9519 169.573 43.4904 169.573 44.0412C169.573 44.4074 169.5 44.7699 169.359 45.1081C169.218 45.4463 169.011 45.7535 168.75 46.0122C168.489 46.2709 168.179 46.4759 167.839 46.6156C167.498 46.7553 167.133 46.8269 166.764 46.8263H166.769Z" fill="#EA4C4C"/>
<path opacity="0.1" d="M90.3041 40.7494C89.6485 40.7489 89.0076 40.9416 88.4623 41.3031C87.917 41.6645 87.4918 42.1785 87.2407 42.78C86.9895 43.3814 86.9235 44.0434 87.0511 44.6821C87.1788 45.3208 87.4942 45.9076 87.9576 46.3682C88.421 46.8288 89.0115 47.1426 89.6544 47.2698C90.2973 47.397 90.9638 47.3319 91.5695 47.0828C92.1752 46.8337 92.6929 46.4118 93.0572 45.8704C93.4214 45.329 93.6159 44.6925 93.6159 44.0413C93.6162 43.6091 93.5307 43.1811 93.3644 42.7817C93.1981 42.3823 92.9542 42.0194 92.6467 41.7137C92.3391 41.408 91.9739 41.1655 91.572 41C91.17 40.8346 90.7392 40.7494 90.3041 40.7494V40.7494ZM90.3041 46.8264C89.7495 46.8264 89.2074 46.663 88.7463 46.357C88.2852 46.051 87.9259 45.616 87.7136 45.1071C87.5014 44.5982 87.4459 44.0382 87.5541 43.4979C87.6623 42.9577 87.9293 42.4614 88.3215 42.0719C88.7136 41.6824 89.2132 41.4172 89.7571 41.3097C90.301 41.2022 90.8647 41.2574 91.3771 41.4682C91.8894 41.679 92.3273 42.036 92.6354 42.494C92.9435 42.952 93.1079 43.4904 93.1079 44.0413C93.1079 44.7799 92.8125 45.4883 92.2867 46.0107C91.7609 46.533 91.0477 46.8264 90.3041 46.8264V46.8264Z" fill="black"/>
<path opacity="0.1" d="M166.764 40.7494C166.109 40.7494 165.468 40.9425 164.923 41.3042C164.378 41.6659 163.953 42.18 163.702 42.7815C163.452 43.383 163.386 44.0449 163.514 44.6835C163.642 45.3221 163.957 45.9086 164.421 46.369C164.884 46.8294 165.475 47.1429 166.118 47.2699C166.761 47.397 167.427 47.3318 168.033 47.0826C168.638 46.8334 169.156 46.4115 169.52 45.8702C169.884 45.3288 170.078 44.6924 170.078 44.0413C170.078 43.1682 169.729 42.3309 169.108 41.7136C168.486 41.0962 167.643 40.7494 166.764 40.7494ZM166.764 46.8264C166.21 46.8264 165.668 46.663 165.207 46.357C164.745 46.051 164.386 45.616 164.174 45.1071C163.962 44.5982 163.906 44.0382 164.014 43.4979C164.122 42.9577 164.39 42.4614 164.782 42.0719C165.174 41.6824 165.673 41.4172 166.217 41.3097C166.761 41.2022 167.325 41.2574 167.837 41.4682C168.35 41.679 168.787 42.036 169.096 42.494C169.404 42.952 169.568 43.4904 169.568 44.0413C169.568 44.7799 169.273 45.4883 168.747 46.0107C168.221 46.533 167.508 46.8264 166.764 46.8264Z" fill="black"/>
<path opacity="0.1" d="M235.309 98.465C237.23 98.465 238.787 96.9183 238.787 95.0102C238.787 93.1022 237.23 91.5554 235.309 91.5554C233.389 91.5554 231.831 93.1022 231.831 95.0102C231.831 96.9183 233.389 98.465 235.309 98.465Z" fill="#EA4C4C"/>
<path opacity="0.1" d="M247.753 85.3948C250.973 85.3948 253.583 82.8016 253.583 79.6028C253.583 76.404 250.973 73.8109 247.753 73.8109C244.532 73.8109 241.922 76.404 241.922 79.6028C241.922 82.8016 244.532 85.3948 247.753 85.3948Z" fill="#EA4C4C"/>
<path opacity="0.1" d="M240.033 113.499C243.254 113.499 245.864 110.906 245.864 107.707C245.864 104.508 243.254 101.915 240.033 101.915C236.813 101.915 234.203 104.508 234.203 107.707C234.203 110.906 236.813 113.499 240.033 113.499Z" fill="#EA4C4C"/>
<path opacity="0.1" d="M8.25667 86.3835C12.8167 86.3835 16.5133 82.7115 16.5133 78.182C16.5133 73.6524 12.8167 69.9805 8.25667 69.9805C3.69664 69.9805 0 73.6524 0 78.182C0 82.7115 3.69664 86.3835 8.25667 86.3835Z" fill="#EA4C4C"/>
<path d="M210.836 167.507C210.317 167.119 209.749 166.802 209.145 166.563C209.1 166.54 209.049 166.526 208.997 166.525C207.749 165.635 206.583 164.637 205.513 163.543C205.74 163.362 205.95 163.185 206.173 163.011C204.806 162.364 204.048 160.882 203.31 159.545C201.359 155.99 198.788 152.808 195.716 150.147C195.641 149.859 195.201 149.92 194.967 149.735C194.89 149.662 194.835 149.57 194.805 149.469C194.776 149.367 194.775 149.26 194.801 149.158C194.837 148.95 194.933 148.758 194.985 148.554C195.11 148.077 195.001 147.574 194.946 147.083C194.892 146.592 194.914 146.045 195.242 145.678C195.347 145.558 195.482 145.466 195.584 145.343C195.692 145.2 195.768 145.035 195.807 144.86C195.846 144.685 195.848 144.503 195.812 144.328C195.787 143.975 195.71 143.628 195.584 143.298C196.7 140.282 197.815 137.26 198.93 134.232C199.711 132.119 200.499 129.961 200.579 127.708C200.643 125.898 200.174 124.017 199.071 122.635C199.272 122.588 199.472 122.538 199.67 122.481C198.367 120.766 198.226 118.495 198.192 116.334C198.174 115.257 198.137 114.179 198.08 113.101C198.458 113.266 198.841 113.413 199.233 113.54L199.597 113.651C200.189 113.823 200.793 113.951 201.404 114.035C201.672 114.074 201.946 114.103 202.217 114.121C201.825 113.147 201.434 112.171 201.044 111.194C200.841 110.761 200.717 110.296 200.679 109.82V109.82V109.73C200.679 109.676 200.679 109.621 200.691 109.567C200.706 109.437 200.736 109.31 200.779 109.187C200.8 109.126 200.823 109.066 200.85 109.008C200.931 108.83 201.029 108.659 201.142 108.499C201.224 108.375 201.315 108.255 201.406 108.133C201.745 107.739 202.021 107.296 202.224 106.818C202.304 106.576 202.346 106.324 202.349 106.069C202.353 105.811 202.33 105.553 202.28 105.3C202.249 105.133 202.208 104.963 202.162 104.8C202.132 104.698 202.101 104.596 202.069 104.497L202.041 104.415C202.016 104.338 201.991 104.264 201.964 104.189L201.937 104.112C201.907 104.031 201.877 103.952 201.845 103.87L201.827 103.823C201.392 102.712 200.814 101.653 200.461 100.51C200.368 100.206 200.292 99.8973 200.233 99.585C200.217 99.5058 200.205 99.4243 200.192 99.3451C200.178 99.266 200.171 99.2094 200.162 99.1415C200.153 99.0736 200.142 98.9831 200.133 98.904L200.112 98.6777C200.112 98.6053 200.101 98.5329 200.096 98.4515C200.096 98.3135 200.083 98.1754 200.08 98.0374C200.08 97.9877 200.08 97.9401 200.08 97.8904C200.08 97.7863 200.08 97.68 200.08 97.5759C200.08 97.5193 200.08 97.4628 200.08 97.4085C200.08 97.3044 200.096 97.2003 200.105 97.0985C200.105 97.0487 200.105 96.999 200.121 96.9514C200.136 96.8006 200.157 96.6498 200.183 96.499C200.205 96.3655 200.231 96.2297 200.258 96.094C200.34 95.7224 200.383 95.3432 200.385 94.9627C200.385 94.8903 200.385 94.8157 200.369 94.7365C200.354 94.6573 200.351 94.6143 200.34 94.5555C200.339 94.5374 200.339 94.5193 200.34 94.5012C200.34 94.4605 200.319 94.4197 200.31 94.379C200.301 94.3383 200.299 94.3406 200.292 94.3225C200.285 94.3044 200.267 94.2433 200.253 94.2048C200.24 94.1663 200.242 94.1709 200.235 94.1528C200.228 94.1347 200.203 94.0713 200.185 94.0329L200.169 93.9921C200.146 93.9424 200.121 93.8948 200.096 93.8473C200.008 93.6822 199.906 93.5248 199.791 93.3767V93.3767C199.042 92.3994 197.796 91.655 197.11 90.5781C196.71 89.8801 196.449 89.1118 196.343 88.3156C196.308 88.1346 196.279 87.9536 196.247 87.7749C196.215 87.5961 196.188 87.4196 196.156 87.2432C196.135 87.1346 196.115 87.0169 196.092 86.9174L196.078 86.8472C196.06 86.7613 196.042 86.673 196.021 86.5871L196.008 86.526C195.987 86.4355 195.967 86.345 195.944 86.2545L195.93 86.207C195.907 86.1119 195.882 86.0169 195.857 85.9219C195.856 85.9106 195.856 85.8992 195.857 85.888C195.83 85.7884 195.8 85.6889 195.771 85.5893V85.5689C195.739 85.4649 195.707 85.3631 195.673 85.2613C195.639 85.1572 195.602 85.0508 195.564 84.9468C195.523 84.8404 195.484 84.7341 195.441 84.63C195.154 83.9011 194.766 83.2157 194.288 82.5938C193.245 81.2635 191.632 80.3087 189.96 80.372C189.063 80.406 188.202 80.7182 187.357 81.0282L185.164 81.8313L185.776 81.5508C185.138 81.6074 184.487 81.6662 183.911 81.9467C183.335 82.2273 182.847 82.7771 182.829 83.4196C182.818 83.7929 182.966 84.164 182.918 84.535C182.838 85.1481 182.271 85.5644 181.977 86.1074C181.805 86.4346 181.726 86.8023 181.749 87.1708V87.1889C181.749 87.2319 181.749 87.2726 181.749 87.3156C181.748 87.3276 181.748 87.3397 181.749 87.3518V87.4242C180.838 87.0305 179.927 86.621 179.016 86.1821C177.51 85.4468 175.987 84.5825 175.048 83.1888C174.748 82.7363 174.515 82.2476 174.217 81.7997C173.875 81.3176 173.494 80.8636 173.078 80.4422L170.283 77.4376C170.069 77.8381 170.345 78.3109 170.561 78.7091C170.791 79.1268 170.965 79.5725 171.078 80.0349C171.133 80.1856 171.128 80.3515 171.065 80.4987C170.963 80.6201 170.831 80.7129 170.682 80.768C170.427 80.9276 170.232 81.1666 170.127 81.4477C170.023 81.7289 170.016 82.0364 170.106 82.3223C170.205 82.6039 170.376 82.855 170.602 83.0509C170.829 83.2469 171.103 83.3809 171.397 83.44C171.594 83.4623 171.788 83.5094 171.973 83.5802C172.31 83.7454 172.47 84.13 172.711 84.4174C173.151 84.9422 173.85 85.1391 174.518 85.311C175.552 86.4966 176.627 87.6323 177.661 88.8179C179.226 90.612 180.827 92.4378 182.868 93.6505C183.079 93.7772 183.296 93.8948 183.514 94.0034C183.514 94.0396 183.514 94.0758 183.503 94.112C183.446 94.3795 183.48 94.6582 183.601 94.9039C183.783 95.1912 184.159 95.2772 184.494 95.336L186.038 95.6098C186.025 95.8087 185.999 96.0066 185.963 96.2026C185.943 96.3225 185.917 96.4401 185.895 96.56L185.867 96.7139C185.867 96.7139 185.867 96.7297 185.867 96.7365C185.867 96.7433 185.867 96.818 185.851 96.8609C185.835 96.9039 185.851 96.8904 185.851 96.9039V97.0125V97.0578C185.851 97.1053 185.851 97.1551 185.851 97.2048C185.904 97.8067 186.307 98.3044 186.71 98.7637L186.926 99.0239C186.583 99.4533 186.342 99.9546 186.223 100.49C186.154 100.826 186.12 101.168 186.122 101.51C185.916 101.706 185.76 101.948 185.667 102.216C185.559 102.587 185.519 102.974 185.548 103.359V103.386C185.548 103.528 185.548 103.669 185.548 103.811C185.522 104.352 185.612 104.892 185.813 105.395C185.833 105.436 185.856 105.472 185.876 105.51C185.535 106.176 184.965 106.694 184.558 107.32C184.145 108.016 183.959 108.821 184.024 109.626C184.088 110.431 184.401 111.196 184.92 111.818C185.232 112.176 185.633 112.52 185.669 112.995C185.664 113.21 185.642 113.425 185.605 113.637C185.569 114.149 185.806 114.633 185.933 115.128C186.04 115.54 186.045 116.033 185.808 116.363C185.569 116.711 185.458 117.13 185.496 117.549C185.612 118.189 185.346 118.83 185.3 119.479C185.28 119.757 185.3 120.04 185.275 120.318C185.242 120.585 185.187 120.848 185.109 121.106C185.109 121.133 185.095 121.162 185.086 121.192C184.524 121.438 183.965 121.694 183.428 121.99C183.138 122.119 182.898 122.338 182.745 122.615C182.654 122.893 182.641 123.19 182.708 123.474L183.193 126.827L183.109 126.791C183.147 127.34 183.187 127.892 183.228 128.445C183.257 128.864 183.296 129.307 183.546 129.642C183.674 129.777 183.789 129.923 183.89 130.079C184.082 130.463 183.854 130.911 183.685 131.305C183.517 131.698 183.458 132.257 183.829 132.47C184.022 132.604 184.231 132.715 184.451 132.8C183.995 134.687 184.414 136.665 184.838 138.558C185.161 140.006 185.485 141.453 185.81 142.898C185.937 143.512 186.009 144.135 186.025 144.762C186.025 144.853 186.025 144.943 186.025 145.034C186.07 145.895 186.223 146.748 186.48 147.572C186.986 149.264 186.501 151.296 186.66 153.14C186.766 154.027 186.944 154.904 187.193 155.762C188.293 160.097 189.275 164.346 189.653 168.803C190.057 169.315 190.606 169.695 191.229 169.896C191.184 170.443 191.245 171.07 191.229 171.389C191.228 171.653 191.187 171.916 191.106 172.167C190.912 172.67 190.423 172.998 189.915 173.174C189.755 173.228 189.594 173.271 189.43 173.31L189.612 173.156C188.571 172.931 187.482 173.121 186.58 173.685C186.439 173.757 186.313 173.856 186.21 173.976C186.107 174.097 186.029 174.236 185.981 174.387C185.944 174.674 186.019 174.965 186.191 175.199C186.692 175.928 187.439 176.455 188.298 176.686C189.146 176.907 190.017 177.028 190.894 177.045L192.502 177.138C192.448 177.229 192.428 177.337 192.447 177.441C192.467 177.546 192.523 177.64 192.607 177.706C192.779 177.831 192.984 177.905 193.197 177.919C193.854 178.015 194.521 178.025 195.181 177.948C195.346 177.943 195.506 177.886 195.636 177.785C195.667 177.758 195.691 177.724 195.708 177.687C195.724 177.65 195.733 177.61 195.733 177.569C195.733 177.528 195.724 177.488 195.708 177.451C195.691 177.414 195.667 177.38 195.636 177.353C195.733 177.35 195.826 177.318 195.904 177.262C195.982 177.205 196.041 177.126 196.074 177.036C196.137 176.852 196.157 176.657 196.133 176.464C196.09 175.719 196.024 174.638 195.634 173.975C195.567 173.854 195.462 173.759 195.334 173.703C195.207 173.648 195.065 173.635 194.93 173.667C194.678 172.343 194.526 171.001 194.475 169.654C194.876 169.504 195.267 169.329 195.646 169.129C194.527 167.335 194.507 165.056 194.848 162.97C194.984 162.312 195.083 161.646 195.147 160.977C195.222 159.642 195.019 158.131 194.274 157.027C195.632 157.885 196.834 158.965 197.828 160.221C199.401 162.258 200.36 164.724 202.29 166.421C202.543 166.175 202.8 165.93 203.059 165.688C203.466 166.372 203.851 167.071 204.214 167.785C204.499 168.31 204.724 168.864 204.884 169.439C205.062 170.318 205.082 171.22 204.945 172.106C204.892 172.577 204.828 173.045 204.752 173.511C204.721 173.711 204.675 173.907 204.613 174.099C204.612 174.038 204.597 173.978 204.57 173.923C204.449 173.713 204.114 173.808 203.932 173.952C203.607 174.194 203.339 174.503 203.146 174.857C203.04 175.03 202.99 175.232 203.005 175.434C203.034 175.556 203.09 175.67 203.169 175.768C203.248 175.865 203.347 175.945 203.46 176C204.305 176.491 205.367 176.136 206.273 175.774C206.524 175.684 206.762 175.565 206.984 175.419C207.439 175.093 207.688 174.557 208.141 174.24C208.383 174.108 208.616 173.961 208.84 173.801C209.262 173.418 209.296 172.774 209.603 172.29C210.113 171.455 211.255 171.24 211.701 170.355C212.218 169.378 211.614 168.145 210.836 167.507Z" fill="url(#paint0_linear)"/>
<path d="M191.199 171.489C191.198 171.75 191.156 172.009 191.074 172.258C190.883 172.753 190.391 173.077 189.885 173.251C189.38 173.425 188.842 173.477 188.327 173.629C188.101 173.68 187.892 173.787 187.719 173.941C187.264 174.394 187.537 175.208 188.07 175.545C188.603 175.882 189.282 175.871 189.915 175.828C191.258 175.75 192.593 175.562 193.905 175.265C194.379 175.154 194.933 174.937 195.008 174.459C195.022 174.307 195.01 174.154 194.971 174.007C194.648 172.387 194.477 170.741 194.459 169.09C194.459 168.982 191.817 168.912 191.571 169.07C191.02 169.43 191.229 170.932 191.199 171.489Z" fill="#A1616A"/>
<path d="M202.98 165.726C203.417 166.446 203.828 167.179 204.212 167.927C204.497 168.444 204.721 168.992 204.882 169.559C205.058 170.425 205.079 171.316 204.943 172.19C204.89 172.653 204.825 173.115 204.747 173.577C204.672 174.029 204.551 174.543 204.162 174.803C204.335 174.905 204.53 174.968 204.731 174.985C204.932 175.003 205.135 174.975 205.324 174.905C205.699 174.76 206.046 174.55 206.346 174.283C208.298 172.683 209.763 170.36 209.836 167.846C209.856 167.65 209.819 167.452 209.729 167.276C209.637 167.153 209.52 167.05 209.387 166.973C207.93 165.987 206.577 164.859 205.349 163.604C205.276 163.507 205.171 163.441 205.052 163.416C204.959 163.417 204.868 163.442 204.788 163.491C204.039 163.864 202.786 164.396 202.474 165.244C202.687 165.351 202.864 165.519 202.98 165.726V165.726Z" fill="#A1616A"/>
<path d="M193.869 174.115C192.229 174.794 190.452 175.038 188.678 175.271C188.45 175.299 188.207 175.317 188.056 175.158C187.997 175.084 187.961 174.994 187.953 174.9C187.946 174.805 187.968 174.711 188.015 174.629C188.112 174.466 188.241 174.324 188.396 174.213L189.573 173.233C188.546 173.017 187.475 173.2 186.58 173.744C186.299 173.883 186.085 174.127 185.983 174.423C185.946 174.708 186.021 174.996 186.193 175.226C186.697 175.948 187.443 176.467 188.298 176.692C189.146 176.911 190.016 177.03 190.892 177.047L192.486 177.138C192.431 177.228 192.412 177.335 192.432 177.439C192.452 177.542 192.509 177.635 192.593 177.699C192.767 177.825 192.972 177.899 193.186 177.914C193.842 178.009 194.508 178.018 195.167 177.941C195.333 177.938 195.493 177.882 195.623 177.781C195.653 177.754 195.677 177.721 195.694 177.684C195.71 177.648 195.719 177.608 195.719 177.568C195.719 177.528 195.71 177.488 195.694 177.451C195.677 177.415 195.653 177.382 195.623 177.355C195.719 177.352 195.812 177.321 195.89 177.265C195.968 177.209 196.027 177.131 196.06 177.041C196.121 176.859 196.141 176.667 196.119 176.477C196.076 175.744 196.01 174.667 195.62 174.027C195.231 173.387 194.42 173.889 193.869 174.115Z" fill="#0E2431"/>
<path d="M210.795 167.647C210.275 167.264 209.707 166.952 209.104 166.717C209.08 166.699 209.052 166.686 209.023 166.68C208.993 166.674 208.962 166.675 208.933 166.682C208.904 166.689 208.876 166.703 208.853 166.723C208.83 166.742 208.812 166.766 208.799 166.794C207.724 168.244 206.884 169.852 206.31 171.561C205.984 172.534 205.727 173.57 205.066 174.357C204.98 174.462 204.838 174.568 204.72 174.507C204.549 174.421 204.654 174.147 204.558 173.982C204.44 173.774 204.116 173.869 203.923 174.011C203.597 174.251 203.329 174.561 203.139 174.916C203.03 175.085 202.98 175.285 202.998 175.484C203.026 175.604 203.081 175.715 203.158 175.812C203.234 175.908 203.331 175.986 203.442 176.041C204.287 176.527 205.349 176.176 206.253 175.814C206.503 175.727 206.74 175.609 206.961 175.464C207.417 175.145 207.665 174.613 208.118 174.303C208.36 174.173 208.594 174.028 208.817 173.869C209.237 173.491 209.273 172.855 209.578 172.375C210.088 171.554 211.23 171.342 211.676 170.468C212.175 169.493 211.573 168.276 210.795 167.647Z" fill="#0E2431"/>
<path d="M198.083 122.454C199.873 123.789 200.625 126.162 200.545 128.384C200.465 130.606 199.679 132.737 198.9 134.821C197.784 137.803 196.67 140.784 195.557 143.764C195.681 144.091 195.757 144.434 195.784 144.782C195.82 144.956 195.818 145.134 195.778 145.307C195.739 145.479 195.664 145.641 195.557 145.782C195.452 145.902 195.329 145.995 195.215 146.113C194.887 146.475 194.867 147.018 194.919 147.5C194.971 147.981 195.083 148.479 194.958 148.95C194.905 149.151 194.81 149.341 194.773 149.545C194.748 149.646 194.75 149.752 194.779 149.852C194.808 149.952 194.864 150.043 194.939 150.115C195.167 150.296 195.623 150.237 195.689 150.522C198.751 153.142 201.32 156.284 203.274 159.798C204.012 161.117 204.756 162.579 206.134 163.217C204.792 164.273 203.505 165.398 202.278 166.586C200.354 164.912 199.395 162.475 197.823 160.477C196.828 159.235 195.628 158.169 194.274 157.325C195.019 158.414 195.222 159.907 195.147 161.221C195.084 161.882 194.984 162.538 194.848 163.188C194.495 165.246 194.527 167.486 195.646 169.265C194.452 169.88 193.081 170.337 191.748 170.154C190.912 170.036 190.153 169.605 189.626 168.95C189.247 164.552 188.259 160.353 187.168 156.083C186.918 155.232 186.74 154.361 186.637 153.479C186.478 151.669 186.963 149.656 186.455 147.986C186.199 147.174 186.046 146.333 185.999 145.484C185.999 145.393 185.999 145.305 185.999 145.214C185.984 144.597 185.912 143.982 185.785 143.377L184.815 139.097C184.391 137.226 183.968 135.275 184.426 133.413C184.207 133.33 183.999 133.221 183.806 133.09C183.435 132.879 183.494 132.33 183.663 131.941C183.831 131.551 184.057 131.11 183.868 130.73C183.767 130.576 183.652 130.431 183.524 130.298C183.273 129.968 183.234 129.531 183.205 129.119L183.086 127.486C183.774 127.757 184.347 128.254 184.708 128.895C183.811 127.515 184.252 125.547 184.915 124.04C185.038 123.578 185.309 123.169 185.686 122.872C186.062 122.576 186.526 122.409 187.006 122.395C190.657 121.775 195.117 120.239 198.083 122.454Z" fill="#0E2431"/>
<path opacity="0.1" d="M196.418 131.744C196.418 131.744 194.623 132.934 194.623 133.825C194.623 134.717 194.167 142.739 194.167 142.739V148.396C194.167 148.396 194.466 151.368 194.167 152.11C193.869 152.853 194.167 156.271 194.167 156.717C194.167 157.163 194.623 152.11 194.623 152.11V146.753L195.078 134.567L196.418 131.744Z" fill="black"/>
<path d="M186.407 90.5351L185.362 90.1301C183.225 89.2794 181.086 88.4264 179.018 87.4287C177.515 86.7024 175.991 85.845 175.055 84.4762C174.754 84.0237 174.522 83.5486 174.224 83.1028C173.881 82.6261 173.5 82.1774 173.085 81.7612L170.292 78.7974C170.078 79.1933 170.352 79.6594 170.57 80.0508C170.799 80.4633 170.973 80.9037 171.087 81.3607C171.141 81.508 171.135 81.6701 171.071 81.8132C170.971 81.9343 170.839 82.0265 170.691 82.0802C170.437 82.2351 170.242 82.47 170.137 82.7475C170.033 83.0251 170.025 83.3293 170.115 83.6119C170.215 83.8912 170.386 84.1399 170.612 84.3335C170.838 84.5271 171.111 84.6589 171.404 84.716C171.601 84.7386 171.794 84.785 171.98 84.854C172.317 85.0192 172.477 85.397 172.718 85.6798C173.158 86.1979 173.857 86.3947 174.522 86.5622C175.556 87.7319 176.629 88.8518 177.663 90.0215C179.226 91.7907 180.825 93.5917 182.865 94.7908C183.59 95.2308 184.384 95.5474 185.214 95.7274C185.488 93.9709 185.887 92.2358 186.407 90.5351V90.5351Z" fill="#A1616A"/>
<path opacity="0.15" d="M186.407 90.5351L185.362 90.1301C183.225 89.2794 181.086 88.4264 179.018 87.4287C177.515 86.7024 175.991 85.845 175.055 84.4762C174.754 84.0237 174.522 83.5486 174.224 83.1028C173.881 82.6261 173.5 82.1774 173.085 81.7612L170.292 78.7974C170.078 79.1933 170.352 79.6594 170.57 80.0508C170.799 80.4633 170.973 80.9037 171.087 81.3607C171.141 81.508 171.135 81.6701 171.071 81.8132C170.971 81.9343 170.839 82.0265 170.691 82.0802C170.437 82.2351 170.242 82.47 170.137 82.7475C170.033 83.0251 170.025 83.3293 170.115 83.6119C170.215 83.8912 170.386 84.1399 170.612 84.3335C170.838 84.5271 171.111 84.6589 171.404 84.716C171.601 84.7386 171.794 84.785 171.98 84.854C172.317 85.0192 172.477 85.397 172.718 85.6798C173.158 86.1979 173.857 86.3947 174.522 86.5622C175.556 87.7319 176.629 88.8518 177.663 90.0215C179.226 91.7907 180.825 93.5917 182.865 94.7908C183.59 95.2308 184.384 95.5474 185.214 95.7274C185.488 93.9709 185.887 92.2358 186.407 90.5351V90.5351Z" fill="black"/>
<path d="M184.494 96.4424C184.159 96.3836 183.783 96.3021 183.601 96.017C183.48 95.7754 183.446 95.5002 183.503 95.2365C183.684 93.5313 184.067 91.8531 184.642 90.2365C185.15 91.1708 186.15 91.7161 187.097 92.2071C187.943 92.6742 188.825 93.0737 189.735 93.4016C189.507 93.3292 188.949 96.8089 188.635 97.0216C188.238 97.2976 187.282 96.9243 186.842 96.8496L184.494 96.4424Z" fill="#EA4C4C"/>
<path d="M186.92 95.4152C189.564 95.4152 191.707 93.286 191.707 90.6595C191.707 88.033 189.564 85.9038 186.92 85.9038C184.275 85.9038 182.132 88.033 182.132 90.6595C182.132 93.286 184.275 95.4152 186.92 95.4152Z" fill="#A1616A"/>
<path d="M185.947 94.5962C185.947 94.5962 189.088 97.2704 187.742 99.0533C186.396 100.836 185.646 102.026 187.441 102.175C189.236 102.325 195.22 99.2026 195.22 99.2026C195.22 99.2026 189.685 94.7455 190.582 92.0713C191.48 89.397 185.947 94.5962 185.947 94.5962Z" fill="#FBBEBE"/>
<path d="M188.96 98.7818C188.291 98.9415 187.679 99.283 187.194 99.768C186.708 100.253 186.368 100.862 186.211 101.528C185.858 103.13 186.608 104.922 185.902 106.397C185.569 107.099 184.952 107.624 184.535 108.282C184.124 108.967 183.939 109.762 184.003 110.557C184.068 111.352 184.379 112.107 184.895 112.719C185.207 113.072 185.608 113.413 185.644 113.879C185.639 114.092 185.617 114.303 185.58 114.513C185.544 115.017 185.781 115.497 185.908 115.986C186.015 116.391 186.02 116.877 185.783 117.203C185.544 117.544 185.434 117.959 185.473 118.373C185.587 119.006 185.321 119.637 185.275 120.278C185.255 120.554 185.275 120.83 185.25 121.106C185.217 121.368 185.162 121.628 185.086 121.882L184.685 123.35C186.858 124.273 189.168 124.606 191.518 124.563C193.623 124.522 195.698 124.09 197.757 123.658C198.383 123.526 199.01 123.395 199.627 123.226C198.324 121.533 198.185 119.291 198.149 117.162C198.092 113.613 197.825 110.069 197.349 106.551C197.98 105.368 198.26 104.049 198.52 102.734C198.637 102.205 198.686 101.663 198.666 101.121C198.602 99.9899 198.078 98.9152 197.566 97.8903C197.096 96.9537 196.589 95.9672 195.543 95.5623C195.291 95.4566 195.015 95.4167 194.743 95.4464C194.471 95.4761 194.211 95.5744 193.987 95.7319C193.197 96.3247 193.432 97.3474 193.229 98.2207C192.962 99.3519 191.912 100.164 190.794 100.483C189.959 100.7 189.095 100.781 188.234 100.721C188.15 100.716 188.068 100.688 187.999 100.64C187.93 100.592 187.875 100.526 187.842 100.449C187.808 100.372 187.797 100.287 187.809 100.204C187.821 100.121 187.856 100.043 187.91 99.9786C188.277 99.5759 188.646 99.1664 188.96 98.7818Z" fill="#EA4C4C"/>
<path d="M192.669 117.164C190.897 118.603 189.104 120.056 187.059 121.074C185.858 121.671 184.583 122.112 183.414 122.755C183.125 122.881 182.886 123.097 182.731 123.37C182.638 123.644 182.625 123.938 182.695 124.219L183.214 127.775C183.357 128.739 184.289 129.359 185.036 129.974C184.995 129.651 184.929 129.4 185.084 129.112C185.138 129.023 185.196 128.936 185.259 128.852C185.578 128.373 185.589 127.75 185.512 127.18C185.435 126.61 185.284 126.049 185.314 125.465C185.307 125.369 185.326 125.272 185.369 125.185C185.411 125.098 185.475 125.023 185.555 124.968C188.1 123.753 190.84 122.821 193.411 121.667C194.092 121.394 194.733 121.032 195.318 120.592C195.905 120.144 196.301 119.492 196.425 118.766C196.436 118.719 196.438 118.67 196.431 118.622C196.423 118.575 196.405 118.529 196.379 118.488C196.327 118.432 196.26 118.392 196.185 118.375C195.033 117.959 193.817 117.576 192.669 117.164Z" fill="#A1616A"/>
<path opacity="0.1" d="M187.746 102.241C186.867 102.388 185.943 102.841 185.644 103.678C185.537 104.045 185.497 104.428 185.526 104.809C185.498 105.345 185.589 105.88 185.792 106.377C185.942 106.651 186.121 106.909 186.325 107.146C188.43 109.825 189.487 113.189 191.537 115.911C191.719 116.151 192.051 116.463 191.949 116.746C191.912 116.819 191.879 116.895 191.851 116.972C191.842 117.045 191.85 117.12 191.877 117.189C191.903 117.258 191.946 117.319 192.001 117.368C192.11 117.468 192.195 117.591 192.249 117.728C192.288 117.87 192.193 118.056 192.044 118.044C192.29 118.8 193.044 119.241 193.76 119.599C194.949 120.194 196.265 120.662 197.588 120.533C197.837 119.544 198.183 118.427 198.044 117.42C197.899 116.651 197.642 115.907 197.281 115.212L196.39 113.28C195.632 111.63 194.867 109.97 193.81 108.492C193.429 108.025 193.108 107.512 192.855 106.965C192.584 106.266 191.84 105.775 191.389 105.176C190.719 104.271 190.022 103.366 189.124 102.712C188.765 102.436 188.186 102.169 187.746 102.241Z" fill="black"/>
<path d="M187.746 101.795C186.867 101.942 185.942 102.395 185.644 103.23C185.537 103.597 185.497 103.98 185.526 104.361C185.498 104.897 185.589 105.432 185.792 105.929C185.942 106.203 186.121 106.461 186.325 106.698C188.43 109.377 189.487 112.741 191.537 115.463C191.719 115.703 192.051 116.015 191.949 116.298C191.912 116.371 191.879 116.447 191.851 116.524C191.842 116.597 191.85 116.672 191.877 116.741C191.903 116.81 191.946 116.871 192.001 116.92C192.11 117.02 192.195 117.143 192.249 117.28C192.288 117.422 192.193 117.608 192.044 117.597C192.29 118.352 193.044 118.793 193.76 119.151C194.949 119.746 196.265 120.214 197.588 120.085C197.837 119.097 198.183 117.979 198.044 116.972C197.899 116.203 197.641 115.459 197.281 114.764L196.39 112.832C195.632 111.182 194.867 109.522 193.81 108.044C193.428 107.576 193.108 107.062 192.855 106.515C192.584 105.818 191.839 105.327 191.388 104.728C190.719 103.823 190.022 102.918 189.124 102.264C188.765 101.99 188.186 101.723 187.746 101.795Z" fill="#EA4C4C"/>
<path d="M185.74 82.8472C185.104 82.9015 184.451 82.9604 183.877 83.2364C183.303 83.5124 182.813 84.0554 182.795 84.6889C182.795 85.0577 182.931 85.4242 182.884 85.7884C182.804 86.3948 182.237 86.8043 181.945 87.3405C181.435 88.2726 181.831 89.4582 182.492 90.2817C183.152 91.1053 184.047 91.7388 184.726 92.5578C185.262 93.2126 185.649 93.9742 185.862 94.7909C186.075 95.6075 186.109 96.4601 185.961 97.2909C185.876 97.6136 185.836 97.9461 185.84 98.2796C185.892 98.8723 186.296 99.3633 186.696 99.8158C188.646 102.081 190.451 104.466 192.099 106.956C192.594 107.679 193.038 108.435 193.429 109.219C193.817 110.029 194.113 110.893 194.65 111.61C195.146 112.226 195.754 112.744 196.443 113.137C198.179 114.201 200.148 114.832 202.183 114.977L201.01 112.087C200.802 111.574 200.588 111.033 200.656 110.483C200.786 109.443 201.843 108.759 202.187 107.768C202.415 107.13 202.312 106.427 202.126 105.777C201.711 104.314 200.882 102.997 200.436 101.542C200.044 100.266 199.957 98.918 200.18 97.6031C200.278 97.0239 200.438 96.4424 200.365 95.861C200.149 94.0917 198.06 93.2456 197.094 91.7455C196.47 90.7817 196.349 89.5939 196.14 88.4672C195.837 86.8224 195.297 85.1798 194.254 83.8676C193.211 82.5554 191.603 81.6051 189.926 81.6753C189.029 81.7092 188.17 82.0192 187.325 82.3223L185.129 83.1165" fill="#0E2431"/>
<g opacity="0.1">
<path opacity="0.1" d="M195.541 86.5419C195.73 87.5577 195.848 88.6233 196.327 89.5306C196.26 89.1776 196.206 88.8224 196.14 88.474C195.985 87.5871 195.739 86.7183 195.406 85.8812C195.463 86.1007 195.502 86.3201 195.541 86.5419Z" fill="black"/>
<path opacity="0.1" d="M199.581 95.6777C199.359 96.9934 199.446 98.3424 199.837 99.6189C199.944 99.9651 200.064 100.298 200.21 100.637C200.02 99.6376 200.01 98.6127 200.18 97.6099C200.278 97.0307 200.438 96.4492 200.365 95.8677C200.298 95.3695 200.093 94.8996 199.773 94.5103C199.739 94.9039 199.647 95.2908 199.581 95.6777Z" fill="black"/>
<path opacity="0.1" d="M202.126 105.784C201.999 105.359 201.847 104.942 201.67 104.535C201.747 104.972 201.717 105.42 201.583 105.843C201.24 106.832 200.18 107.517 200.053 108.558C199.984 109.108 200.196 109.649 200.406 110.162C200.483 110.354 200.561 110.549 200.634 110.741C200.628 110.658 200.628 110.574 200.634 110.49C200.763 109.449 201.82 108.766 202.164 107.775C202.41 107.137 202.312 106.434 202.126 105.784Z" fill="black"/>
<path opacity="0.1" d="M195.846 111.212C195.158 110.817 194.55 110.299 194.053 109.682C193.514 108.965 193.217 108.099 192.83 107.291C192.44 106.507 191.995 105.752 191.5 105.029C189.853 102.537 188.049 100.152 186.1 97.8859C186.029 97.8067 185.961 97.7252 185.892 97.6438C185.845 97.8531 185.828 98.0678 185.84 98.2818C185.892 98.8746 186.296 99.3655 186.696 99.818C188.646 102.083 190.451 104.468 192.099 106.958C192.594 107.682 193.038 108.438 193.429 109.221C193.816 110.031 194.113 110.895 194.65 111.612C195.146 112.228 195.754 112.746 196.443 113.14C198.179 114.203 200.148 114.834 202.182 114.979L201.385 113.033C199.421 112.862 197.525 112.239 195.846 111.212V111.212Z" fill="black"/>
<path opacity="0.1" d="M184.127 90.6347C183.444 89.8157 182.553 89.1935 181.893 88.3609C181.833 88.284 181.777 88.2048 181.72 88.1211C181.706 88.913 181.98 89.6833 182.492 90.2908C183.152 91.1257 184.047 91.7479 184.726 92.5669C184.991 92.885 185.22 93.2309 185.409 93.5986C185.268 92.5112 184.824 91.4847 184.127 90.6347V90.6347Z" fill="black"/>
</g>
<path d="M95.2171 67.4103L93.5657 65.761C93.4842 65.6792 93.3872 65.6144 93.2802 65.5701C93.1733 65.5258 93.0586 65.503 92.9428 65.503C92.8269 65.503 92.7122 65.5258 92.6053 65.5701C92.4984 65.6144 92.4013 65.6792 92.3198 65.761L81.9494 75.967L77.5626 71.5778C77.3986 71.4149 77.1761 71.3234 76.9442 71.3234C76.7123 71.3234 76.4898 71.4149 76.3258 71.5778L74.6562 73.2181C74.4922 73.3829 74.4003 73.6052 74.4003 73.8369C74.4003 74.0686 74.4922 74.2909 74.6562 74.4557L81.3185 81.1232C81.484 81.2859 81.7075 81.3772 81.9403 81.3772C82.1732 81.3772 82.3967 81.2859 82.5621 81.1232L95.2171 68.6479C95.2993 68.5669 95.3647 68.4705 95.4093 68.3643C95.4538 68.2581 95.4768 68.1442 95.4768 68.0291C95.4768 67.914 95.4538 67.8001 95.4093 67.6939C95.3647 67.5877 95.2993 67.4913 95.2171 67.4103V67.4103Z" fill="#193647"/>
<path d="M140.999 67.4103L139.348 65.761C139.266 65.6792 139.169 65.6144 139.062 65.5701C138.955 65.5258 138.84 65.503 138.725 65.503C138.609 65.503 138.494 65.5258 138.387 65.5701C138.28 65.6144 138.183 65.6792 138.102 65.761L127.731 75.967L123.344 71.5778C123.18 71.4149 122.958 71.3234 122.726 71.3234C122.494 71.3234 122.272 71.4149 122.108 71.5778L120.438 73.2181C120.274 73.3829 120.182 73.6052 120.182 73.8369C120.182 74.0686 120.274 74.2909 120.438 74.4557L127.1 81.1232C127.266 81.2859 127.489 81.3772 127.722 81.3772C127.955 81.3772 128.178 81.2859 128.344 81.1232L140.999 68.6479C141.081 68.5669 141.146 68.4705 141.191 68.3643C141.236 68.2581 141.259 68.1442 141.259 68.0291C141.259 67.914 141.236 67.8001 141.191 67.6939C141.146 67.5877 141.081 67.4913 140.999 67.4103Z" fill="#193647"/>
</g>
<defs>
<linearGradient id="paint0_linear" x1="190.981" y1="177.998" x2="190.981" y2="77.4331" gradientUnits="userSpaceOnUse">
<stop stop-color="#808080" stop-opacity="0.25"/>
<stop offset="0.54" stop-color="#808080" stop-opacity="0.12"/>
<stop offset="1" stop-color="#808080" stop-opacity="0.1"/>
</linearGradient>
<clipPath id="clip0">
<rect width="257" height="178" fill="white"/>
</clipPath>
</defs>
</svg>

