<svg width="247" height="177" viewBox="0 0 247 177" fill="none" xmlns="http://www.w3.org/2000/svg">
<g clip-path="url(#clip0)">
<path opacity="0.1" d="M242.218 47.8222C239.774 42.511 236.47 37.5838 232.423 33.2141L96.493 31.9603L208.407 17.2515C201.178 14.5581 193.481 13.1296 185.7 13.0371C174.994 5.02919 161.811 0.469217 148.114 0.0355383C134.416 -0.39814 120.934 3.31765 109.674 10.6301C100.675 6.29935 90.6978 4.04842 80.578 4.06567C50.3756 4.06567 25.21 23.6409 19.5652 49.5968L242.218 47.8222Z" fill="#EA4C4C"/>
<path opacity="0.1" d="M246.998 69.5921C247.004 62.5527 245.567 55.5775 242.763 49.0453L7.18114 72.1851C4.76041 76.2967 2.90836 80.6798 1.6696 85.2287L74.6268 95.4036L0 102.824C2.24484 132.208 29.1642 155.412 62.0487 155.412C78.6021 155.412 93.6448 149.532 104.789 139.944C115.969 149.714 131.157 155.722 147.888 155.722C172.715 155.722 194.141 142.495 204.119 123.37C224.138 117.425 239.688 102.498 245.01 83.8217L152.752 70.4324H246.988C246.993 70.1523 246.998 69.8722 246.998 69.5921Z" fill="#EA4C4C"/>
<path opacity="0.1" d="M6.57314 162.438C9.90766 162.438 12.6108 162.09 12.6108 161.661C12.6108 161.232 9.90766 160.884 6.57314 160.884C3.23862 160.884 0.535461 161.232 0.535461 161.661C0.535461 162.09 3.23862 162.438 6.57314 162.438Z" fill="#EA4C4C"/>
<path opacity="0.1" d="M29.702 164.633C33.0365 164.633 35.7397 164.285 35.7397 163.856C35.7397 163.427 33.0365 163.079 29.702 163.079C26.3675 163.079 23.6643 163.427 23.6643 163.856C23.6643 164.285 26.3675 164.633 29.702 164.633Z" fill="#EA4C4C"/>
<path opacity="0.1" d="M56.9464 161.661C60.2809 161.661 62.9841 161.313 62.9841 160.884C62.9841 160.455 60.2809 160.107 56.9464 160.107C53.6119 160.107 50.9087 160.455 50.9087 160.884C50.9087 161.313 53.6119 161.661 56.9464 161.661Z" fill="#EA4C4C"/>
<path opacity="0.1" d="M20.4444 170.657C22.8155 170.657 24.7376 170.41 24.7376 170.105C24.7376 169.801 22.8155 169.554 20.4444 169.554C18.0733 169.554 16.1511 169.801 16.1511 170.105C16.1511 170.41 18.0733 170.657 20.4444 170.657Z" fill="#EA4C4C"/>
<path opacity="0.1" d="M44.4525 170.105C46.8236 170.105 48.7458 169.858 48.7458 169.554C48.7458 169.249 46.8236 169.002 44.4525 169.002C42.0814 169.002 40.1592 169.249 40.1592 169.554C40.1592 169.858 42.0814 170.105 44.4525 170.105Z" fill="#EA4C4C"/>
<path d="M29.8329 163.681C29.8329 163.681 21.3634 137.703 31.1565 127.298C38.4849 119.513 46.8002 120.445 50.5252 121.408C51.489 121.648 52.3856 122.081 53.1527 122.678C53.9198 123.275 54.5393 124.02 54.9681 124.863C56.2706 127.489 56.0344 131.758 46.8423 136.738C31.4511 145.077 30.4947 156.515 30.4947 156.515L29.8329 163.681Z" fill="#EA4C4C"/>
<path d="M49.1994 125.093C49.1994 125.093 24.2349 132.397 29.833 163.681" stroke="#193647" stroke-miterlimit="10"/>
<path d="M34.6196 127.712C34.6196 127.712 38.057 129.878 36.958 133.136" stroke="#193647" stroke-miterlimit="10"/>
<path d="M46.695 129.637C46.695 129.637 44.5904 127.637 42.0369 128.74" stroke="#193647" stroke-miterlimit="10"/>
<path d="M36.827 139.703C36.827 139.703 33.1371 137.952 32.183 140.141" stroke="#193647" stroke-miterlimit="10"/>
<path d="M27.6957 143.353C27.6957 143.353 30.4667 143.147 30.5181 144.388" stroke="#193647" stroke-miterlimit="10"/>
<path d="M29.4962 163.889C29.4962 163.889 39.4156 145.007 42.1398 145.421C43.4329 145.617 44.0292 146.808 44.3004 148.005C44.6366 149.556 44.4478 151.167 43.7603 152.613C42.3573 155.622 38.5644 161.366 29.4962 163.889Z" fill="#EA4C4C"/>
<path d="M42.058 149.005C42.058 149.005 31.6475 163.131 29.6365 163.751" stroke="#193647" stroke-miterlimit="10"/>
<path d="M43.0167 151.208H40.5872" stroke="#193647" stroke-miterlimit="10"/>
<path d="M40.1055 156.377L36.2986 156.53" stroke="#193647" stroke-miterlimit="10"/>
<path d="M37.7881 152.243L38.202 154.099" stroke="#193647" stroke-miterlimit="10"/>
<path d="M33.738 157.893L33.8129 159.58" stroke="#193647" stroke-miterlimit="10"/>
<path d="M29.7839 163.889C29.7839 163.889 19.8645 145.007 17.1403 145.421C15.8472 145.617 15.2509 146.808 14.9796 148.005C14.6461 149.552 14.8357 151.158 15.5221 152.6C16.9275 155.622 20.7086 161.366 29.7839 163.889Z" fill="#EA4C4C"/>
<path d="M17.2151 149.005C17.2151 149.005 27.6255 163.131 29.6365 163.751" stroke="#193647" stroke-miterlimit="10"/>
<path d="M16.2587 151.208H18.6883" stroke="#193647" stroke-miterlimit="10"/>
<path d="M19.1677 156.377L22.9769 156.53" stroke="#193647" stroke-miterlimit="10"/>
<path d="M21.4873 152.243L21.0734 154.099" stroke="#193647" stroke-miterlimit="10"/>
<path d="M25.5374 157.893L25.4625 159.58" stroke="#193647" stroke-miterlimit="10"/>
<path d="M46.8142 168.298C47.0847 168.092 47.282 167.814 47.3801 167.501C47.4236 167.344 47.408 167.178 47.3361 167.03C47.2641 166.882 47.1402 166.762 46.9849 166.689C46.6225 166.558 46.2343 166.794 45.942 167.031C45.6497 167.267 45.3107 167.541 44.9272 167.49C45.1229 167.322 45.2688 167.108 45.3508 166.872C45.4327 166.635 45.4479 166.382 45.3948 166.138C45.3787 166.037 45.3335 165.941 45.2639 165.862C45.0628 165.661 44.698 165.748 44.4572 165.906C43.6902 166.409 43.4774 167.383 43.4727 168.261C43.4306 167.939 43.4259 167.614 43.4587 167.291C43.4587 166.967 43.3605 166.606 43.0682 166.433C42.8873 166.34 42.6828 166.295 42.4766 166.302C42.1305 166.302 41.7493 166.322 41.5131 166.558C41.2208 166.851 41.2957 167.341 41.5506 167.665C41.8349 167.965 42.1718 168.218 42.5467 168.411C42.8279 168.572 43.0675 168.789 43.2482 169.046C43.2691 169.082 43.2864 169.12 43.2997 169.16H45.458C45.9502 168.932 46.4066 168.642 46.8142 168.298V168.298Z" fill="#EA4C4C"/>
<path d="M9.0191 160.694C9.28979 160.488 9.48718 160.211 9.58499 159.897C9.62812 159.74 9.61245 159.573 9.54058 159.425C9.46871 159.277 9.34495 159.157 9.1898 159.083C8.82736 158.954 8.44152 159.191 8.14689 159.427C7.85225 159.663 7.51787 159.935 7.13204 159.884C7.32835 159.716 7.47465 159.503 7.55662 159.266C7.6386 159.029 7.65344 158.776 7.59971 158.532C7.58218 158.431 7.53616 158.337 7.46642 158.258C7.26532 158.057 6.90054 158.142 6.65968 158.302C5.8927 158.805 5.6799 159.779 5.67523 160.657C5.6331 160.334 5.6284 160.009 5.6612 159.685C5.6612 159.361 5.56533 159.002 5.27303 158.83C5.09129 158.737 4.88608 158.691 4.67908 158.698C4.33534 158.685 3.95185 158.718 3.71567 158.954C3.42337 159.247 3.50054 159.738 3.75309 160.048C4.03705 160.35 4.37491 160.603 4.75157 160.797C5.03341 160.956 5.27319 161.173 5.45308 161.431C5.47423 161.468 5.49222 161.506 5.50687 161.545H7.66518C8.15564 161.32 8.61113 161.034 9.0191 160.694V160.694Z" fill="#EA4C4C"/>
<path d="M21.6159 168.298C21.8864 168.092 22.0837 167.814 22.1818 167.501C22.2253 167.344 22.2097 167.178 22.1378 167.03C22.0658 166.882 21.9419 166.762 21.7866 166.689C21.4242 166.558 21.036 166.794 20.7437 167.031C20.4514 167.267 20.1124 167.541 19.7289 167.49C19.9246 167.322 20.0705 167.108 20.1525 166.872C20.2344 166.635 20.2496 166.382 20.1965 166.138C20.1804 166.037 20.1352 165.941 20.0656 165.862C19.8645 165.661 19.4997 165.748 19.2589 165.906C18.4919 166.409 18.2791 167.383 18.2744 168.261C18.2323 167.939 18.2276 167.614 18.2604 167.291C18.2604 166.967 18.1645 166.606 17.8722 166.433C17.6904 166.341 17.4852 166.295 17.2782 166.302C16.9345 166.302 16.551 166.322 16.3148 166.558C16.0225 166.851 16.0974 167.341 16.3523 167.665C16.6366 167.965 16.9735 168.218 17.3484 168.411C17.6296 168.572 17.8692 168.789 18.0499 169.046C18.0708 169.082 18.0881 169.12 18.1014 169.16H20.2597C20.7519 168.932 21.2083 168.642 21.6159 168.298V168.298Z" fill="#EA4C4C"/>
<path d="M57.3392 152.926C57.3392 152.926 58.1483 153.917 56.9651 155.412C55.7819 156.906 54.8091 158.169 55.202 159.101C55.202 159.101 56.9861 156.324 58.4383 156.285C59.8904 156.245 58.9363 154.595 57.3392 152.926Z" fill="#EA4C4C"/>
<path opacity="0.1" d="M57.3393 152.926C57.4097 153.022 57.4656 153.126 57.5053 153.237C58.9223 154.795 59.6753 156.248 58.3144 156.285C57.0446 156.32 55.5247 158.442 55.1599 158.978C55.1716 159.02 55.1856 159.059 55.202 159.101C55.202 159.101 56.9862 156.324 58.4383 156.285C59.8904 156.245 58.9364 154.595 57.3393 152.926Z" fill="black"/>
<path d="M58.8428 154.188C58.8428 154.536 58.8007 154.819 58.7493 154.819C58.6979 154.819 58.6558 154.536 58.6558 154.188C58.6558 153.841 58.7095 154.005 58.761 154.005C58.8124 154.005 58.8428 153.841 58.8428 154.188Z" fill="#FFD037"/>
<path d="M59.3596 154.604C59.0322 154.77 58.7469 154.871 58.7235 154.823C58.7002 154.775 58.9433 154.604 59.2707 154.444C59.5981 154.285 59.4671 154.399 59.4929 154.444C59.5186 154.49 59.687 154.438 59.3596 154.604Z" fill="#FFD037"/>
<path d="M53.0647 152.926C53.0647 152.926 52.2556 153.917 53.4389 155.412C54.6221 156.906 55.5972 158.169 55.202 159.101C55.202 159.101 53.4178 156.324 51.9657 156.285C50.5136 156.245 51.477 154.595 53.0647 152.926Z" fill="#EA4C4C"/>
<path opacity="0.1" d="M53.0647 152.926C52.9946 153.022 52.9394 153.126 52.901 153.237C51.484 154.795 50.7287 156.248 52.0896 156.285C53.3594 156.32 54.8816 158.442 55.2464 158.978C55.2324 159.02 55.2184 159.059 55.202 159.101C55.202 159.101 53.4178 156.324 51.9657 156.285C50.5136 156.245 51.477 154.595 53.0647 152.926Z" fill="black"/>
<path d="M51.5611 154.188C51.5611 154.536 51.6032 154.819 51.6546 154.819C51.7061 154.819 51.7482 154.536 51.7482 154.188C51.7482 153.841 51.6967 154.005 51.6453 154.005C51.5938 154.005 51.5611 153.841 51.5611 154.188Z" fill="#FFD037"/>
<path d="M51.0443 154.604C51.3717 154.77 51.657 154.871 51.6827 154.823C51.7084 154.775 51.4605 154.604 51.1355 154.444C50.8105 154.285 50.9368 154.399 50.9017 154.444C50.8666 154.49 50.7193 154.438 51.0443 154.604Z" fill="#FFD037"/>
<path d="M51.8184 158.97C51.8184 158.97 54.0819 158.906 54.7624 158.451C55.4428 157.996 58.2419 157.453 58.4126 158.182C58.5833 158.91 61.8102 161.805 59.2567 161.825C56.7032 161.845 53.3243 161.453 52.6438 161.066C51.9633 160.679 51.8184 158.97 51.8184 158.97Z" fill="#081B26"/>
<path opacity="0.2" d="M59.3035 161.571C56.75 161.591 53.3687 161.199 52.6882 160.812C52.1691 160.517 51.9633 159.458 51.8955 158.967H51.8184C51.8184 158.967 51.9633 160.676 52.6438 161.064C53.3243 161.451 56.7032 161.843 59.2567 161.823C59.9957 161.823 60.2482 161.571 60.2342 161.208C60.129 161.431 59.8507 161.567 59.3035 161.571Z" fill="black"/>
<path opacity="0.1" d="M143.2 177C185.742 177 220.23 175.536 220.23 173.731C220.23 171.925 185.742 170.462 143.2 170.462C100.657 170.462 66.1689 171.925 66.1689 173.731C66.1689 175.536 100.657 177 143.2 177Z" fill="#EA4C4C"/>
<path d="M135.352 75.9925C135.352 75.9925 140.263 84.686 140.644 85.9267C140.743 86.2712 140.957 86.577 141.255 86.7997C141.553 87.0225 141.918 87.1505 142.299 87.1652C142.299 87.1652 147.191 88.2593 148.36 88.4059C149.53 88.5525 159.664 89.3534 159.664 89.3534C159.664 89.3534 162.236 89.4278 162.547 88.5525C162.833 87.7517 167.802 83.5438 170.678 87.2156C170.943 87.5552 171.119 87.9486 171.191 88.3637C171.264 88.7789 171.23 89.2042 171.094 89.605C170.566 91.1805 169.481 93.6816 168.316 92.1258C166.679 89.9376 164.776 90.5525 164.776 91.7188C164.776 92.8851 162.157 92.4518 161.301 92.6159C160.833 92.7056 159.225 93.1061 157.833 93.4562C156.218 93.8646 154.564 94.1219 152.895 94.2242C150.133 94.3927 146.062 94.5327 144.619 94.0229C142.877 93.4037 139.839 93.2614 138.539 93.2286C138.109 93.2189 137.693 93.0792 137.354 92.8304C135.549 91.5085 134.023 89.8843 132.852 88.0405C130.825 84.7583 126.656 77.9619 126.936 75.9925C127.217 74.0232 135.352 75.9925 135.352 75.9925Z" fill="#EFB7B9"/>
<path opacity="0.05" d="M135.352 75.9925C135.352 75.9925 140.263 84.686 140.644 85.9267C140.743 86.2712 140.957 86.577 141.255 86.7997C141.553 87.0225 141.918 87.1505 142.299 87.1652C142.299 87.1652 147.191 88.2593 148.36 88.4059C149.53 88.5525 159.664 89.3534 159.664 89.3534C159.664 89.3534 162.236 89.4278 162.547 88.5525C162.833 87.7517 167.802 83.5438 170.678 87.2156C170.943 87.5552 171.119 87.9486 171.191 88.3637C171.264 88.7789 171.23 89.2042 171.094 89.605C170.566 91.1805 169.481 93.6816 168.316 92.1258C166.679 89.9376 164.776 90.5525 164.776 91.7188C164.776 92.8851 162.157 92.4518 161.301 92.6159C160.833 92.7056 159.225 93.1061 157.833 93.4562C156.218 93.8646 154.564 94.1219 152.895 94.2242C150.133 94.3927 146.062 94.5327 144.619 94.0229C142.877 93.4037 139.839 93.2614 138.539 93.2286C138.109 93.2189 137.693 93.0792 137.354 92.8304C135.549 91.5085 134.023 89.8843 132.852 88.0405C130.825 84.7583 126.656 77.9619 126.936 75.9925C127.217 74.0232 135.352 75.9925 135.352 75.9925Z" fill="black"/>
<path d="M210.816 157.427C210.807 162.077 208.882 166.544 205.441 169.898C201.999 173.252 197.308 175.234 192.344 175.431C187.379 175.629 182.525 174.026 178.792 170.958C175.059 167.889 172.736 163.591 172.305 158.959C172.277 158.665 172.256 158.372 172.247 158.083V158.068C172.238 157.851 172.233 157.632 172.233 157.412C172.233 152.624 174.265 148.032 177.883 144.647C181.501 141.261 186.408 139.359 191.524 139.359C196.641 139.359 201.548 141.261 205.166 144.647C208.784 148.032 210.816 152.624 210.816 157.412V157.427Z" fill="#193647"/>
<path d="M191.524 167.263C197.336 167.263 202.047 162.854 202.047 157.416C202.047 151.978 197.336 147.569 191.524 147.569C185.713 147.569 181.002 151.978 181.002 157.416C181.002 162.854 185.713 167.263 191.524 167.263Z" fill="#DCE0ED"/>
<path d="M191.524 163.324C195.011 163.324 197.838 160.679 197.838 157.416C197.838 154.153 195.011 151.508 191.524 151.508C188.038 151.508 185.211 154.153 185.211 157.416C185.211 160.679 188.038 163.324 191.524 163.324Z" fill="#193647"/>
<path d="M140.861 123.134L94.4071 124.009V117.602C94.8234 112.445 100.487 110.635 105.631 110.069C109.653 109.641 113.725 109.927 117.634 110.911C127.49 113.353 133.769 113.826 136.863 113.872C137.542 113.881 138.196 114.11 138.716 114.519C139.236 114.928 139.589 115.492 139.715 116.117C139.863 116.85 140.008 117.648 140.143 118.436C140.246 119.053 140.344 119.662 140.433 120.228C140.691 121.861 140.861 123.134 140.861 123.134Z" fill="#193647"/>
<path d="M177.922 158.582H81.4198C80.6747 158.589 79.9439 158.391 79.3182 158.013C78.6924 157.634 78.1995 157.092 77.9005 156.453C77.1733 154.827 78.1905 153.79 79.2755 153.182C81.496 151.95 83.1792 150.023 84.0271 147.742C85.056 144.898 86.0615 140.447 86.4566 133.493C86.8635 126.3 89.6462 122.745 92.6533 121.02C96.5374 118.797 100.796 119.631 100.796 119.631L139.924 119.924C140.62 120.22 141.264 120.613 141.834 121.09C145.321 124.128 140.237 128.093 140.237 128.093C129.324 138.887 137.585 149.827 137.585 149.827H157.606C161.347 149.846 165.005 148.798 168.094 146.823C170.799 145.073 171.835 143.381 172.252 142.357C172.56 141.574 172.874 140.793 173.248 140.035C178.5 129.377 172.165 112.038 169.431 105.554C168.753 103.942 168.297 103.001 168.297 103.001L174.576 102.563L178.551 102.281H178.591C187.341 116.403 190.594 130.915 191.686 141.668C191.789 142.681 191.873 143.663 191.941 144.607C192.065 146.4 191.794 148.197 191.145 149.889C190.496 151.58 189.484 153.128 188.169 154.439C186.855 155.749 185.268 156.792 183.505 157.505C181.743 158.218 179.842 158.585 177.922 158.582V158.582Z" fill="#EA4C4C"/>
<path opacity="0.1" d="M140.436 120.228H94.4071V118.436H140.146C140.249 119.042 140.347 119.651 140.436 120.228Z" fill="black"/>
<path opacity="0.1" d="M141.836 121.104H93.0252C92.8982 121.104 92.7725 121.08 92.6557 121.033C96.5397 118.81 100.798 119.644 100.798 119.644L139.926 119.937C140.622 120.233 141.267 120.626 141.836 121.104Z" fill="black"/>
<path d="M142.243 118.863H75.9457C75.4174 118.863 74.9893 119.264 74.9893 119.758V119.76C74.9893 120.254 75.4174 120.655 75.9457 120.655H142.243C142.771 120.655 143.2 120.254 143.2 119.76V119.758C143.2 119.264 142.771 118.863 142.243 118.863Z" fill="#DCE0ED"/>
<path opacity="0.1" d="M191.686 141.672C189.462 143.935 187.825 144.825 187.902 142.438C188.136 135.217 174.574 102.57 174.574 102.57L178.584 102.285C187.336 116.397 190.591 130.909 191.686 141.672Z" fill="black"/>
<path opacity="0.1" d="M210.699 155.438C208.396 155.954 205.555 156.479 202.047 156.97C200.742 157.149 199.339 157.321 197.838 157.486C194.253 157.884 190.107 158.232 185.318 158.499C183.962 158.575 182.554 158.644 181.093 158.707C178.357 158.824 175.429 158.913 172.308 158.974L172.249 158.099V158.083C176.61 156.436 183.473 152.04 184.577 140.589C187.333 139.595 190.296 139.206 193.238 139.453C196.18 139.699 199.023 140.574 201.546 142.01C204.07 143.447 206.208 145.406 207.795 147.737C209.382 150.067 210.377 152.708 210.701 155.455L210.699 155.438Z" fill="black"/>
<path d="M168.611 158.582C168.611 158.582 190.755 156.333 183.127 124.76C183.127 124.76 194.069 134.147 200.876 139.364C207.683 144.58 219.816 151.773 219.816 151.773C219.816 151.773 212.572 158.107 168.611 158.582Z" fill="#EA4C4C"/>
<path opacity="0.1" d="M168.611 158.582C168.611 158.582 190.755 156.333 183.127 124.76C183.127 124.76 194.069 134.147 200.876 139.364C207.683 144.58 219.816 151.773 219.816 151.773C219.816 151.773 212.572 158.107 168.611 158.582Z" fill="white"/>
<path d="M109.45 175.468C120.104 175.468 128.741 167.386 128.741 157.416C128.741 147.446 120.104 139.364 109.45 139.364C98.7955 139.364 90.1583 147.446 90.1583 157.416C90.1583 167.386 98.7955 175.468 109.45 175.468Z" fill="#193647"/>
<path d="M109.45 167.263C115.261 167.263 119.973 162.854 119.973 157.416C119.973 151.978 115.261 147.569 109.45 147.569C103.638 147.569 98.9272 151.978 98.9272 157.416C98.9272 162.854 103.638 167.263 109.45 167.263Z" fill="#DCE0ED"/>
<path d="M109.45 163.324C112.937 163.324 115.764 160.679 115.764 157.416C115.764 154.153 112.937 151.508 109.45 151.508C105.963 151.508 103.136 154.153 103.136 157.416C103.136 160.679 105.963 163.324 109.45 163.324Z" fill="#193647"/>
<path opacity="0.1" d="M131.08 151.994C131.08 140.337 121.186 130.887 108.982 130.887C96.7782 130.887 86.8846 140.337 86.8846 151.994C86.8846 152.487 86.9025 152.975 86.9384 153.458H131.026C131.062 152.975 131.08 152.487 131.08 151.994Z" fill="black"/>
<path d="M130.261 151.63C130.261 140.405 120.735 131.305 108.982 131.305C97.2295 131.305 87.703 140.405 87.703 151.63C87.703 152.105 87.7217 152.574 87.7544 153.04H130.21C130.243 152.574 130.261 152.105 130.261 151.63Z" fill="#EA4C4C"/>
<path opacity="0.1" d="M130.261 151.63C130.261 151.957 130.261 152.287 130.236 152.602C130.236 152.749 130.219 152.893 130.21 153.04H87.7544C87.7544 152.893 87.7357 152.749 87.7287 152.602C87.7124 152.28 87.703 151.946 87.703 151.63C87.703 140.405 97.2295 131.305 108.982 131.305C120.735 131.305 130.261 140.405 130.261 151.63Z" fill="white"/>
<path opacity="0.1" d="M130.236 152.613C130.236 152.76 130.219 152.904 130.21 153.051H87.7545C87.7545 152.904 87.7357 152.76 87.7287 152.613H130.236Z" fill="black"/>
<path opacity="0.1" d="M133.067 153.477H80.889C79.511 153.477 78.3939 154.522 78.3939 155.811C78.3939 157.1 79.511 158.145 80.889 158.145H133.067C134.445 158.145 135.562 157.1 135.562 155.811C135.562 154.522 134.445 153.477 133.067 153.477Z" fill="black"/>
<path d="M133.067 153.04H80.889C79.511 153.04 78.3939 154.084 78.3939 155.373C78.3939 156.662 79.511 157.707 80.889 157.707H133.067C134.445 157.707 135.562 156.662 135.562 155.373C135.562 154.084 134.445 153.04 133.067 153.04Z" fill="#DCE0ED"/>
<path opacity="0.1" d="M187.88 122.599C189.29 122.002 189.132 118.827 187.527 115.506C185.922 112.184 183.478 109.976 182.069 110.572C180.659 111.169 180.817 114.344 182.422 117.666C184.026 120.987 186.47 123.195 187.88 122.599Z" fill="black"/>
<path d="M188.114 122.379C189.523 121.783 189.365 118.607 187.761 115.286C186.156 111.965 183.712 109.756 182.302 110.353C180.893 110.949 181.051 114.125 182.655 117.446C184.26 120.767 186.704 122.976 188.114 122.379Z" fill="#DCE0ED"/>
<path opacity="0.1" d="M178.549 102.285V105.714H171.417C170.753 105.715 170.089 105.665 169.434 105.565C168.756 103.953 168.3 103.012 168.3 103.012L174.578 102.574L178.549 102.285Z" fill="black"/>
<path d="M178.549 105.268H171.417C165.152 105.268 160.076 100.891 160.076 95.4714V94.5633C160.076 89.1542 165.152 84.7692 171.417 84.7692L178.549 85.3753V105.268Z" fill="#EA4C4C"/>
<path d="M166.798 90.5678C166.798 90.5678 171.066 92.7013 168.611 96.3117C168.611 96.3117 165.599 100.933 160.864 100.495L159.14 90.5678C159.14 90.5678 164.811 90.0755 166.798 90.5678Z" fill="#EA4C4C"/>
<path opacity="0.1" d="M165.159 90.3753C165.838 90.3994 166.502 90.5656 167.102 90.8618C167.703 91.1579 168.225 91.5764 168.629 92.0864C169.389 93.0711 169.843 94.5065 168.615 96.3118C168.615 96.3118 165.604 100.933 160.868 100.496L159.145 90.5679C159.145 90.5679 162.692 90.2506 165.159 90.3753Z" fill="black"/>
<path opacity="0.1" d="M178.315 85.3753H179.69C180.845 85.3753 181.952 85.8046 182.769 86.5686C183.585 87.3327 184.044 88.3691 184.044 89.4496V101.196C184.044 102.276 183.585 103.313 182.769 104.077C181.952 104.841 180.845 105.27 179.69 105.27H178.315V85.3753Z" fill="black"/>
<path d="M178.549 85.3753H179.924C181.079 85.3753 182.186 85.8046 183.003 86.5686C183.819 87.3327 184.278 88.3691 184.278 89.4496V101.196C184.278 102.276 183.819 103.313 183.003 104.077C182.186 104.841 181.079 105.27 179.924 105.27H178.549V85.3753Z" fill="#DCE0ED"/>
<path d="M127.914 110.924C127.914 110.924 129.015 111.301 130.486 111.826C132.824 112.668 136.121 113.898 137.267 114.572C138.413 115.246 142.685 116.353 145.884 117.132C148.256 117.707 150.697 117.989 153.147 117.97C155.635 117.948 158.649 117.926 159.482 117.926C159.627 117.925 159.773 117.935 159.917 117.957C160.791 118.093 160.756 118.642 160.735 118.773V118.802C155.591 121.718 149.354 134.775 148.966 136.963C148.674 138.604 146.104 143.154 144.836 145.329C144.411 146.057 144.135 146.519 144.135 146.519L145.695 148.195L150.215 150.092L154.501 151.843C154.501 151.843 159.023 152.062 159.101 151.843C159.178 151.624 159.178 149.364 159.178 149.364C158.627 149.031 158.105 148.659 157.616 148.252C156.579 147.407 155.615 146.486 154.735 145.497C152.242 142.725 157.23 137.401 157.23 137.401L166.817 125.731C166.817 125.731 167.596 124.419 171.337 119.167C175.079 113.915 171.337 111.071 171.337 111.071L164.752 108.513C153.332 104.513 139.556 101.307 139.556 101.307L139.36 101.283L136.439 100.942L127.914 110.924Z" fill="#EFB7B9"/>
<path d="M157.337 150.092C157.337 150.092 158.156 150.996 157.543 151.077C156.931 151.158 155.322 150.832 155.322 150.832L145.119 145.799C145.119 145.799 144.009 145.059 143.747 146.51C143.485 147.961 143.307 147.823 143.307 147.823C143.307 147.823 141.963 150.53 143.307 151.09C144.652 151.65 152.728 153.867 152.728 153.867C152.728 153.867 164.451 156.357 165.561 153.484C166.672 150.611 163.574 151.105 163.574 151.105C163.574 151.105 159.716 150.23 158.399 148.48C158.39 148.48 156.491 148.972 157.337 150.092Z" fill="#C14545"/>
<path opacity="0.05" d="M171.328 111.071L164.743 108.513C153.322 104.513 139.547 101.307 139.547 101.307L139.351 101.283L136.43 100.942L127.914 110.924C127.914 110.924 129.015 111.301 130.486 111.826C132.824 112.668 136.121 113.898 137.267 114.572C138.413 115.246 142.685 116.353 145.884 117.132C148.256 117.707 150.697 117.989 153.147 117.97C155.635 117.948 158.649 117.926 159.482 117.926C159.627 117.925 159.773 117.935 159.917 117.957C160.791 118.093 160.756 118.642 160.735 118.773V118.802C155.591 121.718 149.354 134.775 148.966 136.963C148.674 138.604 146.104 143.154 144.836 145.329L144.666 145.622C144.327 145.569 143.903 145.683 143.754 146.51C143.49 147.959 143.314 147.823 143.314 147.823C143.314 147.823 141.97 150.53 143.314 151.09C144.659 151.65 152.728 153.867 152.728 153.867C152.728 153.867 164.451 156.357 165.561 153.484C166.672 150.611 163.574 151.105 163.574 151.105C163.574 151.105 159.716 150.23 158.399 148.48C158.282 148.511 158.168 148.551 158.058 148.598C157.92 148.493 157.772 148.379 157.616 148.252C156.579 147.407 155.615 146.486 154.735 145.497C152.242 142.725 157.23 137.401 157.23 137.401L166.817 125.731C166.817 125.731 167.596 124.419 171.337 119.167C175.079 113.915 171.328 111.071 171.328 111.071Z" fill="black"/>
<path d="M120.061 62.1239L120.417 62.544L120.616 62.7782L121.855 64.2377C121.855 64.2377 124.813 65.1261 127.406 65.7015C130.107 66.2989 132.41 66.5593 130.579 65.1304C129.443 64.2442 129.368 62.7607 129.782 61.1699C130.131 59.9457 130.63 58.7635 131.269 57.647C131.361 57.4807 131.452 57.3187 131.543 57.1612C132.124 56.1559 132.767 55.1834 133.47 54.2488C131.807 53.1714 130.083 52.1801 128.304 51.2794C126.162 50.2422 124.404 49.7893 125.519 51.8418C126.235 53.1547 126.001 54.6295 125.332 56.0408C125.281 56.1524 125.225 56.2597 125.166 56.3756C124.566 57.4693 123.824 58.49 122.959 59.415C122.072 60.3888 121.103 61.2947 120.061 62.1239V62.1239Z" fill="#EFB7B9"/>
<path d="M134.873 95.4562L136.458 96.8106L137.99 102.325H135.434L132.611 98.8894L134.873 95.4562Z" fill="#C14545"/>
<path opacity="0.1" d="M132.611 98.8894L134.318 100.966L135.434 102.325H137.99L137.728 101.382L136.612 97.3642L136.458 96.8106L134.873 95.4562L132.707 98.7428L132.611 98.8894Z" fill="black"/>
<path opacity="0.1" d="M132.611 98.8894L134.318 100.966L135.434 102.325H137.99L137.728 101.382L136.612 97.3642L136.458 96.8106L134.873 95.4562L132.707 98.7428L132.611 98.8894Z" fill="black"/>
<path d="M124.116 113.399C124.116 113.399 125.218 113.775 126.688 114.301C129.027 115.143 132.324 116.373 133.47 117.047C134.615 117.721 138.888 118.828 142.087 119.607C144.458 120.182 146.9 120.465 149.35 120.447C151.838 120.425 154.852 120.403 155.684 120.403C155.83 120.402 155.975 120.412 156.119 120.434C156.994 120.57 156.959 121.119 156.938 121.25V121.279C151.793 124.195 145.557 137.252 145.169 139.44C144.876 141.081 142.306 145.631 141.039 147.806C140.613 148.534 140.337 148.996 140.337 148.996L141.897 150.672L146.415 152.567L150.701 154.318C150.701 154.318 155.224 154.536 155.301 154.318C155.378 154.099 155.378 151.838 155.378 151.838C154.827 151.506 154.305 151.134 153.816 150.727C152.779 149.882 151.815 148.96 150.935 147.972C148.442 145.2 153.43 139.876 153.43 139.876L163.017 128.206C163.017 128.206 163.796 126.893 167.537 121.642C171.279 116.39 167.537 113.546 167.537 113.546L161.537 110.336C152.184 105.012 139.009 101.948 139.009 101.948L138.813 101.924L135.892 101.583L124.116 113.399Z" fill="#EFB7B9"/>
<path opacity="0.1" d="M140.335 148.994L141.895 150.67L146.415 152.567L150.701 154.318C150.701 154.318 155.224 154.536 155.301 154.318C155.378 154.099 155.378 151.838 155.378 151.838C154.828 151.506 154.305 151.134 153.816 150.727C153.332 150.97 152.782 151.425 153.313 152.129C153.313 152.129 154.132 153.031 153.519 153.114C152.906 153.197 151.297 152.869 151.297 152.869L141.095 147.836L141.037 147.799C140.606 148.532 140.335 148.994 140.335 148.994Z" fill="black"/>
<path d="M153.54 152.567C153.54 152.567 154.358 153.469 153.743 153.552C153.128 153.635 151.522 153.304 151.522 153.304L141.322 148.272C141.322 148.272 140.211 147.534 139.947 148.983C139.683 150.431 139.51 150.296 139.51 150.296C139.51 150.296 138.165 153.005 139.51 153.565C140.854 154.125 148.922 156.333 148.922 156.333C148.922 156.333 160.642 158.821 161.752 155.95C162.863 153.079 159.765 153.569 159.765 153.569C159.765 153.569 155.906 152.694 154.592 150.943C154.599 150.952 152.691 151.444 153.54 152.567Z" fill="#C14545"/>
<path opacity="0.1" d="M124.738 55.4851C126.09 56.3604 128.152 57.7455 129.913 57.7455C130.367 57.7454 130.821 57.7117 131.269 57.6448C131.92 56.4672 132.656 55.3319 133.47 54.2466C133.47 54.2466 123.181 47.5356 125.519 51.8397C126.291 53.2707 125.531 53.9731 124.738 55.4851Z" fill="black"/>
<path d="M121.495 49.4305C121.494 50.7442 121.844 52.0373 122.515 53.1916C123.185 54.346 124.154 55.3248 125.332 56.0387C125.597 56.2002 125.872 56.3463 126.155 56.4763C127.794 57.2412 129.654 57.4853 131.454 57.1715C133.255 56.8578 134.896 56.0033 136.131 54.7377C137.365 53.4721 138.125 51.8643 138.295 50.1582C138.465 48.4521 138.035 46.7407 137.072 45.2834C136.109 43.8262 134.664 42.7026 132.957 42.083C131.25 41.4634 129.373 41.3816 127.612 41.8501C125.85 42.3185 124.3 43.3116 123.196 44.6787C122.093 46.0459 121.495 47.7126 121.495 49.4261V49.4305Z" fill="#EFB7B9"/>
<path opacity="0.1" d="M124.116 113.399C124.116 113.399 125.218 113.775 126.688 114.301C127.612 113.539 128.559 112.804 128.954 112.67C129.812 112.377 132.618 110.845 132.541 110.408C132.464 109.97 133.71 108.294 134.8 108.001C135.89 107.708 135.268 106.178 135.268 106.178C135.268 106.178 137.372 105.449 137.896 104.428C138.42 103.406 140.024 102.093 139.477 102.167C139.24 102.131 139.013 102.048 138.813 101.924L135.892 101.583L124.116 113.399Z" fill="black"/>
<path d="M117.723 110.773C117.723 110.773 121.31 113.546 121.476 114.784C121.642 116.023 124.037 115.953 124.037 115.953C124.037 115.953 127.624 112.743 128.48 112.452C129.335 112.161 132.144 110.627 132.067 110.189C131.989 109.751 133.236 108.075 134.326 107.782C135.415 107.489 134.793 105.959 134.793 105.959C134.793 105.959 136.898 105.231 137.422 104.209C137.945 103.187 139.549 101.874 139.002 101.948C138.848 101.968 138.355 101.73 137.728 101.382C136.959 100.944 135.983 100.351 135.188 99.85C134.347 99.3161 133.704 98.8916 133.704 98.8916C133.704 98.8916 133.336 98.8303 132.707 98.745C129.314 98.2854 118.263 97.1126 115.698 100.933C115.356 101.438 115.1 101.989 114.938 102.568C113.79 106.638 117.723 110.773 117.723 110.773Z" fill="#C14545"/>
<path opacity="0.1" d="M121.474 101.929C121.474 101.929 117.812 103.863 116.446 103.863C115.081 103.863 121.474 101.929 121.474 101.929Z" fill="black"/>
<path opacity="0.1" d="M123.92 103.406C123.92 103.406 118.467 105.121 118.467 106.469C118.467 107.817 117.957 102.859 123.92 103.406Z" fill="black"/>
<path opacity="0.1" d="M136.975 95.6793L136.898 95.7778C136.933 95.7525 136.96 95.7183 136.975 95.6793V95.6793Z" fill="black"/>
<path opacity="0.1" d="M120.061 62.124L120.417 62.5441L120.616 62.7782L121.855 64.2377C121.855 64.2377 124.813 65.1261 127.406 65.7016C130.107 66.299 132.41 66.5594 130.579 65.1305C129.443 64.2443 129.368 62.7607 129.782 61.1699L129.7 61.0715C129.7 61.0715 129.782 62.5463 128.849 62.5747C127.591 62.6119 127.575 62.2159 126.415 61.7585C124.921 61.1677 123.389 60.1809 122.959 59.4128C122.072 60.3874 121.103 61.294 120.061 62.124Z" fill="black"/>
<path opacity="0.1" d="M114.938 102.561C115.576 102.816 116.294 102.832 116.944 102.605C119.36 101.874 123.181 100.115 124.972 100.885C126.408 101.502 132.191 101.485 134.325 100.966C134.856 100.837 135.16 100.677 135.114 100.489C135.083 100.272 135.111 100.052 135.195 99.8478C135.443 99.106 136.117 98.0754 136.619 97.3643L136.465 96.8106L134.88 95.4562L132.714 98.7384C129.321 98.2789 118.27 97.106 115.705 100.927C115.361 101.431 115.102 101.982 114.938 102.561Z" fill="black"/>
<path d="M113.36 100.854C113.36 100.854 114.295 102.896 116.711 102.167C119.126 101.439 122.947 99.6771 124.738 100.447C126.529 101.218 135.107 100.999 134.873 100.051C134.639 99.1038 136.977 96.1126 136.977 96.1126C136.977 96.1126 135.7 95.8938 134.91 91.9923C134.793 91.4234 134.688 90.7757 134.599 90.0405C134.406 88.5348 134.361 87.0157 134.463 85.5022C134.779 81.2791 136.36 79.5548 136.36 79.5548C136.36 79.5548 138.542 77.2222 136.671 74.0122C135.691 72.3295 131.737 67.6666 131.683 65.5878C131.634 63.7016 129.707 61.5091 129.707 61.5091C129.707 61.5091 129.789 62.9839 128.856 63.0124C127.598 63.0496 127.582 62.6535 126.422 62.1962C124.717 61.5222 122.966 60.3341 122.851 59.5398C122.851 59.5398 115.705 59.205 114.145 65.9882C112.586 72.7715 113.133 76.4914 113.367 77.2945C113.601 78.0975 115.626 88.454 113.989 92.8304C112.352 97.2067 113.36 100.854 113.36 100.854Z" fill="#193647"/>
<path opacity="0.1" d="M125.012 88.9377C126.301 90.9723 128.025 92.7357 130.077 94.117C131.445 94.1277 132.811 94.2131 134.169 94.373C134.052 93.8041 133.935 93.1564 133.858 92.4212C133.665 90.9155 133.619 89.3964 133.722 87.883C133.498 87.7776 133.3 87.6286 133.142 87.446C132.984 87.2634 132.869 87.0513 132.806 86.8239C132.415 85.5832 128.938 79.6752 128.938 79.6752C128.938 79.6752 120.803 77.7058 120.52 79.6752C120.237 81.6445 122.984 85.6554 125.012 88.9377Z" fill="black"/>
<path d="M127.708 75.9925C127.708 75.9925 132.618 84.686 133 85.9267C133.099 86.2712 133.313 86.577 133.611 86.7997C133.908 87.0225 134.274 87.1505 134.655 87.1652C134.655 87.1652 139.547 88.2593 140.716 88.4059C141.885 88.5525 152.027 89.3534 152.027 89.3534C152.027 89.3534 154.599 89.4278 154.91 88.5525C155.195 87.7517 160.165 83.5438 163.041 87.2156C163.306 87.5552 163.482 87.9486 163.554 88.3637C163.626 88.7789 163.593 89.2042 163.457 89.605C162.928 91.1805 161.843 93.6816 160.679 92.1258C159.042 89.9376 157.139 90.5525 157.139 91.7188C157.139 92.8851 154.52 92.4518 153.664 92.6159C153.196 92.7056 151.587 93.1061 150.196 93.4562C148.577 93.8653 146.919 94.1226 145.246 94.2242C142.484 94.3927 138.413 94.5327 136.97 94.0229C135.23 93.4037 132.193 93.2614 130.89 93.2286C130.46 93.2189 130.044 93.0792 129.705 92.8304C127.901 91.5083 126.375 89.8841 125.206 88.0405C123.178 84.7583 119.009 77.9619 119.29 75.9925C119.57 74.0232 127.708 75.9925 127.708 75.9925Z" fill="#EFB7B9"/>
<path opacity="0.1" d="M126.071 63.9466C126.071 63.9466 128.702 68.0319 129.92 70.9487C131.138 73.8656 132.618 78.9727 132.618 78.9727L125.29 78.1697L124.668 77.2222C124.668 77.2222 119.435 80.2856 120.059 81.5985C120.683 82.9114 118.656 79.6292 118.813 75.9093C118.969 72.1894 118.249 65.5506 118.813 63.9466C119.376 62.3427 124.348 62.706 126.071 63.9466Z" fill="black"/>
<path d="M118.822 75.4717C118.665 79.1916 120.693 82.4738 120.068 81.1609C119.444 79.848 124.677 76.7846 124.677 76.7846L125.292 77.7321L132.618 78.5351C132.618 78.5351 131.138 73.428 129.92 70.5112C129.188 68.861 128.351 67.2535 127.413 65.6972C126.663 64.4215 126.071 63.5091 126.071 63.5091C125.063 62.7804 122.924 62.3537 121.217 62.4544C120.951 62.4685 120.686 62.4985 120.424 62.5441C119.722 62.6732 119.156 62.9226 118.906 63.3165C118.868 63.3775 118.837 63.442 118.813 63.5091C118.252 65.113 118.972 71.7518 118.822 75.4717Z" fill="#193647"/>
<path opacity="0.1" d="M115.548 85.6554C115.548 85.6554 118.647 89.6488 119.582 89.7582C119.575 89.7669 115.6 88.9376 115.548 85.6554Z" fill="black"/>
<path opacity="0.1" d="M115.548 91.3446C115.548 91.3446 121.394 96.8697 123.265 96.9244C125.136 96.9791 115.548 91.3446 115.548 91.3446Z" fill="black"/>
<path opacity="0.1" d="M115.548 93.6509C115.548 93.6509 119.29 97.7537 119.524 97.7537C119.757 97.7537 115.483 96.3314 115.548 93.6509Z" fill="black"/>
<path opacity="0.1" d="M118.899 63.3165C119.501 63.2326 120.082 63.0504 120.616 62.7783C120.817 62.6798 121.015 62.5704 121.21 62.4544C121.976 61.9742 122.691 61.4245 123.342 60.8133C124.418 59.8352 125.491 58.7674 125.935 57.426C126.035 57.1169 126.109 56.8008 126.155 56.4807C126.422 54.798 126.197 52.9403 127.483 51.7959C127.725 51.5825 128.002 51.4073 128.304 51.2773C130.128 50.4655 132.773 50.9907 134.134 49.5268C134.999 48.599 134.978 47.3102 135.642 46.3014C135.932 45.8638 136.465 45.4853 136.937 45.0826C136.25 44.1027 135.337 43.2788 134.265 42.6711C133.194 42.0633 131.991 41.6871 130.744 41.5698C129.497 41.4524 128.238 41.597 127.059 41.9929C125.88 42.3888 124.81 43.026 123.927 43.8582C123.044 44.6903 122.371 45.6963 121.957 46.8028C121.543 47.9093 121.398 49.0884 121.532 50.2541C121.667 51.4197 122.078 52.5426 122.735 53.5407C123.393 54.5388 124.28 55.387 125.332 56.0234C125.281 56.135 125.225 56.2422 125.166 56.3582C123.56 59.4216 120.061 62.1087 120.061 62.1087L120.417 62.5288C119.708 62.6798 119.149 62.9227 118.899 63.3165Z" fill="black"/>
<path d="M133.666 49.3123C132.083 51.0103 128.755 50.0213 127.013 51.5771C125.484 52.9403 126.092 55.3188 125.468 57.2072C125.023 58.5485 123.95 59.6142 122.874 60.5945C121.308 62.0211 119.304 63.4697 117.162 63.0605C115.892 62.8176 114.648 61.9292 113.42 62.3384C112.81 62.5441 112.373 63.0386 111.917 63.4741C110.368 64.9511 108.355 65.9257 106.171 66.2552C105.74 66.3463 105.29 66.3267 104.869 66.1983C104.214 65.9489 103.861 65.2793 103.265 64.9226C102.096 64.2224 100.594 64.9401 99.3808 65.566C95.9868 67.2856 92.2402 68.3091 88.3905 68.5683C84.5408 68.8275 80.6763 68.3165 77.054 67.0692L78.9458 66.194C78.5436 65.4259 77.4563 65.2574 76.7641 64.6951C75.3377 63.5375 76.1772 61.2225 77.6854 60.1612C79.1937 59.1 81.1462 58.7302 82.7082 57.7389C83.0263 57.5376 83.3489 57.2707 83.3793 56.914C83.3742 56.652 83.2855 56.3975 83.1245 56.1831C82.292 54.8112 81.3707 53.3385 81.5578 51.7696C81.843 49.3627 84.6514 47.8835 87.2306 47.715C89.8099 47.5465 92.3634 48.273 94.9473 48.3145C95.8826 48.3298 96.8624 48.2445 97.6645 47.7916C98.7846 47.1614 99.3481 45.9601 100.029 44.9163C101.243 43.0631 102.984 41.5617 105.056 40.5794C107.394 39.4744 110.041 39.0871 112.473 38.1724C114.957 37.2403 117.216 35.7654 119.814 35.1724C123.585 34.2972 127.626 35.4416 130.883 37.4197C132.452 38.3715 137.464 41.4262 137.431 43.3802C137.405 44.54 135.794 45.168 135.184 46.0782C134.51 47.0957 134.531 48.3845 133.666 49.3123Z" fill="#081B26"/>
<g opacity="0.1">
<path opacity="0.1" d="M82.8953 55.0868C83.0552 55.3017 83.1438 55.5559 83.1502 55.8177C83.1409 55.9099 83.1132 55.9998 83.0684 56.0824C82.3809 54.949 81.6654 53.7477 81.5508 52.4829C81.8548 53.3866 82.3903 54.2553 82.8953 55.0868Z" fill="black"/>
<path opacity="0.1" d="M76.535 63.5987C77.2248 64.1611 78.3121 64.3296 78.7167 65.0976L78.0479 65.4083C77.5973 65.21 77.1688 64.9703 76.7688 64.6928C76.5152 64.4813 76.3174 64.2178 76.1908 63.9228C76.0642 63.6279 76.0124 63.3095 76.0393 62.9926C76.1585 63.2243 76.3272 63.4305 76.535 63.5987V63.5987Z" fill="black"/>
<path opacity="0.1" d="M99.1517 64.4718C100.365 63.846 101.869 63.1283 103.036 63.8285C103.63 64.1852 103.985 64.8547 104.64 65.1042C105.06 65.2326 105.509 65.2522 105.94 65.1611C108.124 64.8315 110.138 63.857 111.688 62.3799C112.141 61.9423 112.579 61.45 113.191 61.2443C114.412 60.8351 115.656 61.7235 116.933 61.9664C119.075 62.3756 121.076 60.927 122.645 59.5003C123.721 58.5222 124.792 57.4544 125.236 56.113C125.863 54.2247 125.255 51.8461 126.784 50.4829C128.531 48.9271 131.852 49.9162 133.437 48.2182C134.3 47.2904 134.281 46.0016 134.945 44.9928C135.506 44.1416 136.961 43.5377 137.167 42.5115C137.327 42.7794 137.416 43.0797 137.426 43.3867C137.4 44.5465 135.789 45.1745 135.179 46.0847C134.515 47.0935 134.534 48.3823 133.671 49.3101C132.085 51.0081 128.76 50.019 127.018 51.5748C125.489 52.938 126.097 55.3166 125.47 57.2049C125.026 58.5463 123.955 59.6119 122.879 60.5922C121.31 62.0189 119.308 63.4674 117.167 63.0583C115.894 62.8154 114.65 61.927 113.425 62.3362C112.812 62.5419 112.375 63.0364 111.922 63.4718C110.372 64.9489 108.358 65.9234 106.174 66.253C105.743 66.3441 105.294 66.3245 104.874 66.1961C104.219 65.9466 103.864 65.277 103.27 64.9204C102.1 64.2202 100.599 64.9379 99.3856 65.5637C95.9915 67.2834 92.2449 68.3069 88.3952 68.5661C84.5455 68.8253 80.681 68.3142 77.0588 67.067L78.3659 66.4608C81.7999 67.4262 85.4038 67.7475 88.9708 67.4061C92.5378 67.0648 95.9976 66.0676 99.1517 64.4718V64.4718Z" fill="black"/>
</g>
<path opacity="0.1" d="M156.938 121.248L158.904 120.357V120.009C158.904 119.876 157.335 120.171 156.119 120.423C156.994 120.567 156.959 121.117 156.938 121.248Z" fill="black"/>
<path d="M158.647 101.126C161.263 101.126 163.384 98.7108 163.384 95.7319C163.384 92.753 161.263 90.3381 158.647 90.3381C156.03 90.3381 153.909 92.753 153.909 95.7319C153.909 98.7108 156.03 101.126 158.647 101.126Z" fill="#EA4C4C"/>
<path d="M113.049 88.7122L105.433 95.7406L80.3956 95.3314L87.2798 88.7122H113.049Z" fill="#F25C5C"/>
<path d="M113.049 112.756V88.7122L105.433 95.7406V119.268L113.049 112.756Z" fill="#B77B7F"/>
<path d="M80.3956 95.3314V119.268H105.433V95.7406L80.3956 95.3314Z" fill="#F25C5C"/>
<path opacity="0.3" d="M80.3956 95.3314V119.268H105.433V95.7406L80.3956 95.3314Z" fill="white"/>
<path d="M103.398 102.329L84.7777 99.338L82.3505 110.778L101.52 114.073L103.398 102.329Z" fill="#DCE0ED"/>
<path d="M99.7199 105.001L87.2026 103.161L86.8893 104.688L99.4066 106.675L99.7199 105.001Z" fill="#EA4C4C"/>
<path d="M96.2778 108.268L89.1575 107.301L88.8441 108.996L96.2778 109.972V108.268Z" fill="#EA4C4C"/>
<path d="M109.969 101.331L109.63 91.8654L107.673 93.6728L108.014 103.161L109.969 101.331Z" fill="#193647"/>
<path d="M84.7613 91.1345L108.821 91.4387L109.63 91.8654L107.673 93.6728L106.997 93.3008L83.1666 92.6684L84.7613 91.1345Z" fill="#193647"/>
</g>
<defs>
<clipPath id="clip0">
<rect width="247" height="177" fill="white"/>
</clipPath>
</defs>
</svg>

